<svg width="460" height="304" viewBox="0 0 460 304" fill="none" xmlns="http://www.w3.org/2000/svg">
<rect x="0.5" y="0.5" width="459" height="303" rx="4.5" stroke="#9747FF" stroke-dasharray="10 5"/>
<rect x="20.2" y="20.2" width="419.6" height="50.6" rx="3.8" fill="#506560"/>
<rect x="20.2" y="20.2" width="419.6" height="50.6" rx="3.8" stroke="black" stroke-width="0.4"/>
<path d="M191.023 42.4205C190.963 41.8826 190.713 41.4659 190.273 41.1705C189.834 40.8712 189.281 40.7216 188.614 40.7216C188.137 40.7216 187.724 40.7973 187.376 40.9489C187.027 41.0966 186.756 41.3011 186.563 41.5625C186.374 41.8201 186.279 42.1136 186.279 42.4432C186.279 42.7197 186.344 42.9583 186.472 43.1591C186.605 43.3598 186.777 43.5284 186.989 43.6648C187.205 43.7973 187.436 43.9091 187.683 44C187.929 44.0871 188.165 44.1591 188.393 44.2159L189.529 44.5114C189.9 44.6023 190.281 44.7254 190.671 44.8807C191.061 45.036 191.423 45.2405 191.756 45.4943C192.09 45.7481 192.359 46.0625 192.563 46.4375C192.772 46.8125 192.876 47.2614 192.876 47.7841C192.876 48.4432 192.705 49.0284 192.364 49.5398C192.027 50.0511 191.537 50.4545 190.893 50.75C190.253 51.0455 189.478 51.1932 188.569 51.1932C187.698 51.1932 186.944 51.0549 186.308 50.7784C185.671 50.5019 185.173 50.1098 184.813 49.6023C184.453 49.0909 184.254 48.4848 184.217 47.7841H185.978C186.012 48.2045 186.148 48.5549 186.387 48.8352C186.629 49.1117 186.938 49.3182 187.313 49.4545C187.692 49.5871 188.107 49.6534 188.558 49.6534C189.054 49.6534 189.495 49.5758 189.881 49.4205C190.272 49.2614 190.578 49.0417 190.802 48.7614C191.025 48.4773 191.137 48.1458 191.137 47.767C191.137 47.4223 191.039 47.1402 190.842 46.9205C190.648 46.7008 190.385 46.5189 190.052 46.375C189.722 46.2311 189.349 46.1042 188.933 45.9943L187.558 45.6193C186.626 45.3655 185.887 44.9924 185.342 44.5C184.8 44.0076 184.529 43.3561 184.529 42.5455C184.529 41.875 184.711 41.2898 185.075 40.7898C185.438 40.2898 185.931 39.9015 186.552 39.625C187.173 39.3447 187.874 39.2045 188.654 39.2045C189.442 39.2045 190.137 39.3428 190.739 39.6193C191.345 39.8958 191.823 40.2765 192.171 40.7614C192.52 41.2424 192.701 41.7955 192.717 42.4205H191.023ZM197.377 51.1932C196.824 51.1932 196.324 51.0909 195.877 50.8864C195.43 50.678 195.076 50.3769 194.815 49.983C194.557 49.589 194.428 49.1061 194.428 48.5341C194.428 48.0417 194.523 47.6364 194.712 47.3182C194.902 47 195.157 46.7481 195.479 46.5625C195.801 46.3769 196.161 46.2367 196.559 46.142C196.957 46.0473 197.362 45.9754 197.775 45.9261C198.298 45.8655 198.722 45.8163 199.048 45.7784C199.373 45.7367 199.61 45.6705 199.758 45.5795C199.906 45.4886 199.979 45.3409 199.979 45.1364V45.0966C199.979 44.6004 199.839 44.2159 199.559 43.9432C199.282 43.6705 198.87 43.5341 198.32 43.5341C197.748 43.5341 197.298 43.661 196.968 43.9148C196.642 44.1648 196.417 44.4432 196.292 44.75L194.695 44.3864C194.885 43.8561 195.161 43.428 195.525 43.1023C195.892 42.7727 196.315 42.5341 196.792 42.3864C197.269 42.2348 197.771 42.1591 198.298 42.1591C198.646 42.1591 199.015 42.2008 199.406 42.2841C199.799 42.3636 200.167 42.5114 200.508 42.7273C200.853 42.9432 201.135 43.2519 201.354 43.6534C201.574 44.0511 201.684 44.5682 201.684 45.2045V51H200.025V49.8068H199.957C199.847 50.0265 199.682 50.2424 199.462 50.4545C199.243 50.6667 198.96 50.8428 198.616 50.983C198.271 51.1231 197.858 51.1932 197.377 51.1932ZM197.746 49.8295C198.216 49.8295 198.618 49.7367 198.951 49.5511C199.288 49.3655 199.544 49.1231 199.718 48.8239C199.896 48.5208 199.985 48.197 199.985 47.8523V46.7273C199.924 46.7879 199.807 46.8447 199.633 46.8977C199.462 46.947 199.267 46.9905 199.048 47.0284C198.828 47.0625 198.614 47.0947 198.406 47.125C198.197 47.1515 198.023 47.1742 197.883 47.1932C197.553 47.2348 197.252 47.3049 196.979 47.4034C196.71 47.5019 196.495 47.6439 196.332 47.8295C196.173 48.0114 196.093 48.2538 196.093 48.5568C196.093 48.9773 196.248 49.2955 196.559 49.5114C196.87 49.7235 197.265 49.8295 197.746 49.8295ZM211.1 42.2727L207.935 51H206.117L202.947 42.2727H204.771L206.981 48.9886H207.072L209.276 42.2727H211.1ZM216.161 51.1761C215.301 51.1761 214.561 50.9924 213.94 50.625C213.322 50.2538 212.845 49.733 212.508 49.0625C212.174 48.3883 212.008 47.5985 212.008 46.6932C212.008 45.7992 212.174 45.0114 212.508 44.3295C212.845 43.6477 213.315 43.1155 213.917 42.733C214.523 42.3504 215.231 42.1591 216.042 42.1591C216.534 42.1591 217.012 42.2405 217.474 42.4034C217.936 42.5663 218.351 42.822 218.718 43.1705C219.085 43.5189 219.375 43.9716 219.587 44.5284C219.799 45.0814 219.906 45.7538 219.906 46.5455V47.1477H212.968V45.875H218.241C218.241 45.428 218.15 45.0322 217.968 44.6875C217.786 44.339 217.531 44.0644 217.201 43.8636C216.875 43.6629 216.493 43.5625 216.053 43.5625C215.576 43.5625 215.159 43.6799 214.803 43.9148C214.451 44.1458 214.178 44.4489 213.985 44.8239C213.796 45.1951 213.701 45.5985 213.701 46.0341V47.0284C213.701 47.6117 213.803 48.108 214.008 48.517C214.216 48.9261 214.506 49.2386 214.877 49.4545C215.248 49.6667 215.682 49.7727 216.178 49.7727C216.5 49.7727 216.794 49.7273 217.059 49.6364C217.324 49.5417 217.553 49.4015 217.746 49.2159C217.94 49.0303 218.087 48.8011 218.19 48.5284L219.798 48.8182C219.669 49.2917 219.438 49.7064 219.104 50.0625C218.775 50.4148 218.36 50.6894 217.86 50.8864C217.364 51.0795 216.798 51.1761 216.161 51.1761ZM226.161 51V39.3636H230.309C231.21 39.3636 231.959 39.5189 232.553 39.8295C233.152 40.1402 233.599 40.5701 233.894 41.1193C234.19 41.6648 234.337 42.2955 234.337 43.0114C234.337 43.7235 234.188 44.3504 233.888 44.892C233.593 45.4299 233.146 45.8485 232.548 46.1477C231.953 46.447 231.205 46.5966 230.303 46.5966H227.161V45.0852H230.144C230.712 45.0852 231.174 45.0038 231.531 44.8409C231.89 44.678 232.154 44.4413 232.32 44.1307C232.487 43.8201 232.57 43.447 232.57 43.0114C232.57 42.572 232.485 42.1913 232.315 41.8693C232.148 41.5473 231.885 41.3011 231.525 41.1307C231.169 40.9564 230.701 40.8693 230.121 40.8693H227.917V51H226.161ZM231.906 45.75L234.781 51H232.781L229.962 45.75H231.906ZM239.989 51.1761C239.129 51.1761 238.389 50.9924 237.768 50.625C237.15 50.2538 236.673 49.733 236.336 49.0625C236.003 48.3883 235.836 47.5985 235.836 46.6932C235.836 45.7992 236.003 45.0114 236.336 44.3295C236.673 43.6477 237.143 43.1155 237.745 42.733C238.351 42.3504 239.059 42.1591 239.87 42.1591C240.362 42.1591 240.84 42.2405 241.302 42.4034C241.764 42.5663 242.179 42.822 242.546 43.1705C242.914 43.5189 243.203 43.9716 243.415 44.5284C243.628 45.0814 243.734 45.7538 243.734 46.5455V47.1477H236.796V45.875H242.069C242.069 45.428 241.978 45.0322 241.796 44.6875C241.614 44.339 241.359 44.0644 241.029 43.8636C240.703 43.6629 240.321 43.5625 239.881 43.5625C239.404 43.5625 238.987 43.6799 238.631 43.9148C238.279 44.1458 238.006 44.4489 237.813 44.8239C237.624 45.1951 237.529 45.5985 237.529 46.0341V47.0284C237.529 47.6117 237.631 48.108 237.836 48.517C238.044 48.9261 238.334 49.2386 238.705 49.4545C239.076 49.6667 239.51 49.7727 240.006 49.7727C240.328 49.7727 240.622 49.7273 240.887 49.6364C241.152 49.5417 241.381 49.4015 241.575 49.2159C241.768 49.0303 241.915 48.8011 242.018 48.5284L243.626 48.8182C243.497 49.2917 243.266 49.7064 242.933 50.0625C242.603 50.4148 242.188 50.6894 241.688 50.8864C241.192 51.0795 240.626 51.1761 239.989 51.1761ZM245.619 54.2727V42.2727H247.278V43.6875H247.42C247.518 43.5057 247.66 43.2955 247.846 43.0568C248.031 42.8182 248.289 42.6098 248.619 42.4318C248.948 42.25 249.384 42.1591 249.925 42.1591C250.63 42.1591 251.259 42.3371 251.812 42.6932C252.365 43.0492 252.799 43.5625 253.113 44.233C253.431 44.9034 253.59 45.7102 253.59 46.6534C253.59 47.5966 253.433 48.4053 253.119 49.0795C252.804 49.75 252.372 50.267 251.823 50.6307C251.274 50.9905 250.647 51.1705 249.942 51.1705C249.412 51.1705 248.978 51.0814 248.641 50.9034C248.308 50.7254 248.047 50.517 247.857 50.2784C247.668 50.0398 247.522 49.8277 247.42 49.642H247.317V54.2727H245.619ZM247.283 46.6364C247.283 47.25 247.372 47.7879 247.55 48.25C247.728 48.7121 247.986 49.0739 248.323 49.3352C248.66 49.5928 249.073 49.7216 249.562 49.7216C250.069 49.7216 250.494 49.5871 250.835 49.3182C251.175 49.0455 251.433 48.6761 251.607 48.2102C251.785 47.7443 251.874 47.2197 251.874 46.6364C251.874 46.0606 251.787 45.5436 251.613 45.0852C251.442 44.6269 251.185 44.2652 250.84 44C250.499 43.7348 250.073 43.6023 249.562 43.6023C249.069 43.6023 248.653 43.7292 248.312 43.983C247.975 44.2367 247.719 44.5909 247.545 45.0455C247.371 45.5 247.283 46.0303 247.283 46.6364ZM259.17 51.1761C258.352 51.1761 257.638 50.9886 257.028 50.6136C256.418 50.2386 255.944 49.714 255.607 49.0398C255.27 48.3655 255.102 47.5777 255.102 46.6761C255.102 45.7708 255.27 44.9792 255.607 44.3011C255.944 43.6231 256.418 43.0966 257.028 42.7216C257.638 42.3466 258.352 42.1591 259.17 42.1591C259.988 42.1591 260.702 42.3466 261.312 42.7216C261.922 43.0966 262.395 43.6231 262.732 44.3011C263.069 44.9792 263.238 45.7708 263.238 46.6761C263.238 47.5777 263.069 48.3655 262.732 49.0398C262.395 49.714 261.922 50.2386 261.312 50.6136C260.702 50.9886 259.988 51.1761 259.17 51.1761ZM259.175 49.75C259.706 49.75 260.145 49.6098 260.494 49.3295C260.842 49.0492 261.1 48.6761 261.266 48.2102C261.437 47.7443 261.522 47.2311 261.522 46.6705C261.522 46.1136 261.437 45.6023 261.266 45.1364C261.1 44.6667 260.842 44.2898 260.494 44.0057C260.145 43.7216 259.706 43.5795 259.175 43.5795C258.641 43.5795 258.198 43.7216 257.846 44.0057C257.497 44.2898 257.238 44.6667 257.067 45.1364C256.901 45.6023 256.817 46.1136 256.817 46.6705C256.817 47.2311 256.901 47.7443 257.067 48.2102C257.238 48.6761 257.497 49.0492 257.846 49.3295C258.198 49.6098 258.641 49.75 259.175 49.75ZM265.134 51V42.2727H266.776V43.6591H266.867C267.026 43.1894 267.307 42.8201 267.708 42.5511C268.113 42.2784 268.572 42.142 269.083 42.142C269.189 42.142 269.314 42.1458 269.458 42.1534C269.606 42.161 269.721 42.1705 269.805 42.1818V43.8068C269.737 43.7879 269.615 43.767 269.441 43.7443C269.267 43.7178 269.093 43.7045 268.918 43.7045C268.517 43.7045 268.159 43.7898 267.844 43.9602C267.534 44.1269 267.288 44.3598 267.106 44.6591C266.924 44.9545 266.833 45.2917 266.833 45.6705V51H265.134ZM275.864 42.2727V43.6364H271.097V42.2727H275.864ZM272.376 40.1818H274.075V48.4375C274.075 48.767 274.124 49.0152 274.222 49.1818C274.321 49.3447 274.448 49.4564 274.603 49.517C274.762 49.5739 274.934 49.6023 275.12 49.6023C275.256 49.6023 275.376 49.5928 275.478 49.5739C275.58 49.5549 275.66 49.5398 275.717 49.5284L276.023 50.9318C275.925 50.9697 275.785 51.0076 275.603 51.0455C275.421 51.0871 275.194 51.1098 274.921 51.1136C274.474 51.1212 274.058 51.0417 273.671 50.875C273.285 50.7083 272.972 50.4508 272.734 50.1023C272.495 49.7538 272.376 49.3163 272.376 48.7898V40.1818Z" fill="white"/>
<rect x="20.2" y="91.2" width="419.6" height="50.6" rx="3.8" fill="#7F9A93"/>
<rect x="20.2" y="91.2" width="419.6" height="50.6" rx="3.8" stroke="black" stroke-width="0.4"/>
<path d="M218 116.5C218 114.924 218.31 113.364 218.913 111.908C219.517 110.452 220.4 109.129 221.515 108.015L224.909 111.409C224.24 112.077 223.71 112.871 223.348 113.745C222.986 114.618 222.8 115.554 222.8 116.5H218Z" fill="white"/>
<rect x="20.2" y="157.2" width="419.6" height="50.6" rx="3.8" fill="#7F9A93"/>
<rect x="20.2" y="157.2" width="419.6" height="50.6" rx="3.8" stroke="black" stroke-width="0.4"/>
<path d="M242 182.5C242 189.127 236.627 194.5 230 194.5C223.373 194.5 218 189.127 218 182.5C218 175.873 223.373 170.5 230 170.5C236.627 170.5 242 175.873 242 182.5ZM222.8 182.5C222.8 186.476 226.024 189.7 230 189.7C233.976 189.7 237.2 186.476 237.2 182.5C237.2 178.524 233.976 175.3 230 175.3C226.024 175.3 222.8 178.524 222.8 182.5Z" fill="white"/>
</svg>
