<svg width="208" height="1116" viewBox="0 0 208 1116" fill="none" xmlns="http://www.w3.org/2000/svg">
<rect x="0.5" y="0.5" width="207" height="1115" rx="4.5" stroke="#9747FF" stroke-dasharray="10 5"/>
<rect x="20.2" y="20.2" width="167.6" height="39.6" rx="3.8" fill="white"/>
<rect x="20.2" y="20.2" width="167.6" height="39.6" rx="3.8" stroke="#222B29" stroke-width="0.4"/>
<path d="M33.04 45.144C32.5387 45.144 32.048 45.1013 31.568 45.016C31.088 44.9307 30.64 44.808 30.224 44.648C29.8187 44.488 29.4507 44.2853 29.12 44.04C28.992 43.944 28.9013 43.8373 28.848 43.72C28.8053 43.592 28.7947 43.4693 28.816 43.352C28.848 43.224 28.9013 43.1173 28.976 43.032C29.0613 42.9467 29.1627 42.8987 29.28 42.888C29.3973 42.8773 29.5253 42.9147 29.664 43C30.144 43.3413 30.656 43.592 31.2 43.752C31.744 43.9013 32.3573 43.976 33.04 43.976C34 43.976 34.7093 43.8 35.168 43.448C35.6373 43.0853 35.872 42.6107 35.872 42.024C35.872 41.544 35.7013 41.1707 35.36 40.904C35.0293 40.6267 34.4693 40.408 33.68 40.248L32.016 39.912C31.0133 39.6987 30.2613 39.352 29.76 38.872C29.2693 38.3813 29.024 37.7307 29.024 36.92C29.024 36.4187 29.1253 35.9653 29.328 35.56C29.5307 35.144 29.8133 34.792 30.176 34.504C30.5387 34.2053 30.9707 33.976 31.472 33.816C31.9733 33.656 32.528 33.576 33.136 33.576C33.808 33.576 34.432 33.672 35.008 33.864C35.5947 34.0453 36.1227 34.3227 36.592 34.696C36.7093 34.792 36.7893 34.904 36.832 35.032C36.8747 35.1493 36.88 35.2667 36.848 35.384C36.816 35.4907 36.7573 35.5813 36.672 35.656C36.5973 35.7307 36.496 35.7733 36.368 35.784C36.2507 35.7947 36.1173 35.752 35.968 35.656C35.5413 35.336 35.0987 35.1067 34.64 34.968C34.1813 34.8187 33.6747 34.744 33.12 34.744C32.5547 34.744 32.064 34.8293 31.648 35C31.2427 35.1707 30.9227 35.4213 30.688 35.752C30.464 36.072 30.352 36.4453 30.352 36.872C30.352 37.384 30.5067 37.7893 30.816 38.088C31.136 38.3867 31.6533 38.6053 32.368 38.744L34.032 39.096C35.1093 39.32 35.904 39.6613 36.416 40.12C36.9387 40.568 37.2 41.1813 37.2 41.96C37.2 42.4293 37.104 42.8613 36.912 43.256C36.72 43.6507 36.4427 43.992 36.08 44.28C35.7173 44.5573 35.28 44.7707 34.768 44.92C34.256 45.0693 33.68 45.144 33.04 45.144ZM42.5638 45.144C41.7424 45.144 41.0331 44.984 40.4358 44.664C39.8491 44.3333 39.3904 43.8693 39.0598 43.272C38.7398 42.6747 38.5798 41.96 38.5798 41.128C38.5798 40.3173 38.7398 39.6133 39.0598 39.016C39.3798 38.408 39.8171 37.9333 40.3718 37.592C40.9371 37.2507 41.5878 37.08 42.3238 37.08C42.8464 37.08 43.3158 37.1707 43.7318 37.352C44.1478 37.5227 44.4998 37.7733 44.7878 38.104C45.0864 38.4347 45.3104 38.8347 45.4598 39.304C45.6198 39.7733 45.6998 40.3013 45.6998 40.888C45.6998 41.0587 45.6518 41.1867 45.5558 41.272C45.4598 41.3467 45.3211 41.384 45.1398 41.384H39.5718V40.536H44.8358L44.5798 40.744C44.5798 40.168 44.4944 39.6827 44.3238 39.288C44.1531 38.8827 43.9024 38.5733 43.5718 38.36C43.2518 38.1467 42.8464 38.04 42.3558 38.04C41.8118 38.04 41.3478 38.168 40.9638 38.424C40.5904 38.6693 40.3078 39.016 40.1158 39.464C39.9238 39.9013 39.8278 40.4133 39.8278 41V41.096C39.8278 42.0773 40.0624 42.824 40.5318 43.336C41.0118 43.848 41.6891 44.104 42.5638 44.104C42.9264 44.104 43.2838 44.056 43.6358 43.96C43.9984 43.864 44.3504 43.704 44.6918 43.48C44.8411 43.384 44.9744 43.3413 45.0918 43.352C45.2198 43.352 45.3211 43.3893 45.3958 43.464C45.4704 43.528 45.5184 43.6133 45.5398 43.72C45.5718 43.816 45.5611 43.9227 45.5078 44.04C45.4651 44.1573 45.3744 44.2587 45.2358 44.344C44.8838 44.6 44.4678 44.7973 43.9878 44.936C43.5078 45.0747 43.0331 45.144 42.5638 45.144ZM49.9434 45.144C49.1754 45.144 48.5887 44.9093 48.1834 44.44C47.778 43.9707 47.5754 43.2987 47.5754 42.424V34.264C47.5754 34.0507 47.6287 33.8907 47.7354 33.784C47.842 33.6667 48.002 33.608 48.2154 33.608C48.418 33.608 48.578 33.6667 48.6954 33.784C48.8127 33.8907 48.8714 34.0507 48.8714 34.264V42.328C48.8714 42.904 48.9834 43.336 49.2074 43.624C49.442 43.9013 49.7834 44.04 50.2314 44.04C50.3274 44.04 50.4127 44.0347 50.4874 44.024C50.562 44.0133 50.6367 44.008 50.7114 44.008C50.8287 43.9973 50.9087 44.024 50.9514 44.088C51.0047 44.152 51.0314 44.28 51.0314 44.472C51.0314 44.664 50.9887 44.808 50.9034 44.904C50.818 45 50.6794 45.064 50.4874 45.096C50.402 45.1067 50.3114 45.1173 50.2154 45.128C50.1194 45.1387 50.0287 45.144 49.9434 45.144ZM55.7356 45.144C54.9143 45.144 54.205 44.984 53.6076 44.664C53.021 44.3333 52.5623 43.8693 52.2316 43.272C51.9116 42.6747 51.7516 41.96 51.7516 41.128C51.7516 40.3173 51.9116 39.6133 52.2316 39.016C52.5516 38.408 52.989 37.9333 53.5436 37.592C54.109 37.2507 54.7596 37.08 55.4956 37.08C56.0183 37.08 56.4876 37.1707 56.9036 37.352C57.3196 37.5227 57.6716 37.7733 57.9596 38.104C58.2583 38.4347 58.4823 38.8347 58.6316 39.304C58.7916 39.7733 58.8716 40.3013 58.8716 40.888C58.8716 41.0587 58.8236 41.1867 58.7276 41.272C58.6316 41.3467 58.493 41.384 58.3116 41.384H52.7436V40.536H58.0076L57.7516 40.744C57.7516 40.168 57.6663 39.6827 57.4956 39.288C57.325 38.8827 57.0743 38.5733 56.7436 38.36C56.4236 38.1467 56.0183 38.04 55.5276 38.04C54.9836 38.04 54.5196 38.168 54.1356 38.424C53.7623 38.6693 53.4796 39.016 53.2876 39.464C53.0956 39.9013 52.9996 40.4133 52.9996 41V41.096C52.9996 42.0773 53.2343 42.824 53.7036 43.336C54.1836 43.848 54.861 44.104 55.7356 44.104C56.0983 44.104 56.4556 44.056 56.8076 43.96C57.1703 43.864 57.5223 43.704 57.8636 43.48C58.013 43.384 58.1463 43.3413 58.2636 43.352C58.3916 43.352 58.493 43.3893 58.5676 43.464C58.6423 43.528 58.6903 43.6133 58.7116 43.72C58.7436 43.816 58.733 43.9227 58.6796 44.04C58.637 44.1573 58.5463 44.2587 58.4076 44.344C58.0556 44.6 57.6396 44.7973 57.1596 44.936C56.6796 45.0747 56.205 45.144 55.7356 45.144ZM64.0433 45.144C63.2646 45.144 62.5926 44.9733 62.0273 44.632C61.4619 44.2907 61.0246 43.816 60.7153 43.208C60.4166 42.5893 60.2673 41.8747 60.2673 41.064C60.2673 40.4453 60.3526 39.8907 60.5233 39.4C60.6939 38.9093 60.9446 38.4933 61.2753 38.152C61.6059 37.8 62.0006 37.5333 62.4593 37.352C62.9286 37.1707 63.4566 37.08 64.0433 37.08C64.4273 37.08 64.8273 37.1387 65.2433 37.256C65.6593 37.3733 66.0379 37.576 66.3793 37.864C66.4859 37.9387 66.5553 38.0293 66.5873 38.136C66.6193 38.2427 66.6193 38.3493 66.5873 38.456C66.5553 38.552 66.5019 38.6373 66.4273 38.712C66.3526 38.776 66.2566 38.8133 66.1393 38.824C66.0326 38.8347 65.9206 38.7973 65.8033 38.712C65.5259 38.4987 65.2433 38.3493 64.9553 38.264C64.6673 38.1787 64.3899 38.136 64.1233 38.136C63.7073 38.136 63.3446 38.2053 63.0353 38.344C62.7259 38.472 62.4646 38.6587 62.2513 38.904C62.0379 39.1493 61.8726 39.4533 61.7553 39.816C61.6486 40.1787 61.5953 40.6 61.5953 41.08C61.5953 42.008 61.8139 42.744 62.2513 43.288C62.6886 43.8213 63.3126 44.088 64.1233 44.088C64.3899 44.088 64.6619 44.0453 64.9393 43.96C65.2273 43.8747 65.5153 43.7253 65.8033 43.512C65.9206 43.4267 66.0326 43.3893 66.1393 43.4C66.2459 43.4107 66.3366 43.4533 66.4113 43.528C66.4859 43.592 66.5339 43.6773 66.5553 43.784C66.5873 43.8907 66.5873 43.9973 66.5553 44.104C66.5233 44.2 66.4539 44.2853 66.3473 44.36C66.0059 44.6373 65.6326 44.84 65.2273 44.968C64.8219 45.0853 64.4273 45.144 64.0433 45.144ZM71.2735 45.144C70.6655 45.144 70.1535 45.0373 69.7375 44.824C69.3322 44.6 69.0282 44.28 68.8255 43.864C68.6228 43.4373 68.5215 42.92 68.5215 42.312V38.232H67.4495C67.2682 38.232 67.1295 38.1893 67.0335 38.104C66.9375 38.008 66.8895 37.88 66.8895 37.72C66.8895 37.56 66.9375 37.4373 67.0335 37.352C67.1295 37.2667 67.2682 37.224 67.4495 37.224H68.5215V35.384C68.5215 35.1707 68.5802 35.0107 68.6975 34.904C68.8148 34.7867 68.9748 34.728 69.1775 34.728C69.3802 34.728 69.5348 34.7867 69.6415 34.904C69.7588 35.0107 69.8175 35.1707 69.8175 35.384V37.224H71.8335C72.0148 37.224 72.1535 37.2667 72.2495 37.352C72.3455 37.4373 72.3935 37.56 72.3935 37.72C72.3935 37.88 72.3455 38.008 72.2495 38.104C72.1535 38.1893 72.0148 38.232 71.8335 38.232H69.8175V42.184C69.8175 42.792 69.9455 43.256 70.2015 43.576C70.4575 43.8853 70.8735 44.04 71.4495 44.04C71.6522 44.04 71.8228 44.0187 71.9615 43.976C72.1108 43.9333 72.2335 43.912 72.3295 43.912C72.4255 43.9013 72.5055 43.9333 72.5695 44.008C72.6335 44.0827 72.6655 44.2107 72.6655 44.392C72.6655 44.52 72.6388 44.6373 72.5855 44.744C72.5428 44.8507 72.4628 44.9253 72.3455 44.968C72.2175 45.0107 72.0468 45.048 71.8335 45.08C71.6308 45.1227 71.4442 45.144 71.2735 45.144ZM78.5283 45.112C78.3149 45.112 78.1496 45.0533 78.0323 44.936C77.9256 44.8187 77.8723 44.6533 77.8723 44.44V37.768C77.8723 37.5547 77.9256 37.3947 78.0323 37.288C78.1389 37.1707 78.2936 37.112 78.4963 37.112C78.6989 37.112 78.8536 37.1707 78.9603 37.288C79.0776 37.3947 79.1363 37.5547 79.1363 37.768V39.064H78.9763C79.1469 38.4347 79.4723 37.9493 79.9523 37.608C80.4323 37.2667 81.0243 37.0853 81.7283 37.064C81.8883 37.0533 82.0163 37.0907 82.1123 37.176C82.2083 37.2507 82.2616 37.384 82.2723 37.576C82.2829 37.7573 82.2403 37.9013 82.1443 38.008C82.0483 38.1147 81.8989 38.1787 81.6963 38.2L81.4403 38.232C80.7149 38.296 80.1549 38.5307 79.7603 38.936C79.3763 39.3307 79.1843 39.8747 79.1843 40.568V44.44C79.1843 44.6533 79.1256 44.8187 79.0082 44.936C78.9016 45.0533 78.7416 45.112 78.5283 45.112ZM86.7449 45.144C85.9875 45.144 85.3315 44.9787 84.7769 44.648C84.2222 44.3173 83.7902 43.8533 83.4809 43.256C83.1822 42.648 83.0329 41.9333 83.0329 41.112C83.0329 40.4933 83.1182 39.9387 83.2889 39.448C83.4595 38.9467 83.7102 38.52 84.0409 38.168C84.3715 37.816 84.7609 37.5493 85.2089 37.368C85.6675 37.176 86.1795 37.08 86.7449 37.08C87.5022 37.08 88.1582 37.2453 88.7129 37.576C89.2675 37.9067 89.6942 38.376 89.9929 38.984C90.3022 39.5813 90.4569 40.2907 90.4569 41.112C90.4569 41.7307 90.3715 42.2853 90.2009 42.776C90.0302 43.2667 89.7795 43.6933 89.4489 44.056C89.1182 44.408 88.7235 44.68 88.2649 44.872C87.8169 45.0533 87.3102 45.144 86.7449 45.144ZM86.7449 44.104C87.2249 44.104 87.6462 43.9867 88.0089 43.752C88.3715 43.5173 88.6489 43.176 88.8409 42.728C89.0435 42.28 89.1449 41.7413 89.1449 41.112C89.1449 40.1413 88.9262 39.4 88.4889 38.888C88.0622 38.376 87.4809 38.12 86.7449 38.12C86.2542 38.12 85.8275 38.2373 85.4649 38.472C85.1129 38.696 84.8355 39.032 84.6329 39.48C84.4409 39.9173 84.3449 40.4613 84.3449 41.112C84.3449 42.072 84.5635 42.8133 85.0009 43.336C85.4382 43.848 86.0195 44.104 86.7449 44.104ZM95.1555 45.144C94.5262 45.144 94.0035 45.032 93.5875 44.808C93.1822 44.5733 92.8728 44.2267 92.6595 43.768C92.4568 43.3093 92.3555 42.7387 92.3555 42.056V37.768C92.3555 37.544 92.4088 37.3787 92.5155 37.272C92.6328 37.1653 92.7928 37.112 92.9955 37.112C93.2088 37.112 93.3688 37.1653 93.4755 37.272C93.5928 37.3787 93.6515 37.544 93.6515 37.768V42.04C93.6515 42.7227 93.7902 43.2347 94.0675 43.576C94.3555 43.9067 94.8035 44.072 95.4115 44.072C96.0728 44.072 96.6115 43.848 97.0275 43.4C97.4435 42.952 97.6515 42.3653 97.6515 41.64V37.768C97.6515 37.544 97.7048 37.3787 97.8115 37.272C97.9288 37.1653 98.0942 37.112 98.3075 37.112C98.5102 37.112 98.6648 37.1653 98.7715 37.272C98.8888 37.3787 98.9475 37.544 98.9475 37.768V44.44C98.9475 44.888 98.7395 45.112 98.3235 45.112C98.1208 45.112 97.9608 45.0533 97.8435 44.936C97.7368 44.8187 97.6835 44.6533 97.6835 44.44V42.984L97.8915 43.208C97.6782 43.8373 97.3262 44.3173 96.8355 44.648C96.3555 44.9787 95.7955 45.144 95.1555 45.144ZM104.492 45.144C103.884 45.144 103.372 45.0373 102.956 44.824C102.551 44.6 102.247 44.28 102.044 43.864C101.842 43.4373 101.74 42.92 101.74 42.312V38.232H100.668C100.487 38.232 100.348 38.1893 100.252 38.104C100.156 38.008 100.108 37.88 100.108 37.72C100.108 37.56 100.156 37.4373 100.252 37.352C100.348 37.2667 100.487 37.224 100.668 37.224H101.74V35.384C101.74 35.1707 101.799 35.0107 101.916 34.904C102.034 34.7867 102.194 34.728 102.396 34.728C102.599 34.728 102.754 34.7867 102.86 34.904C102.978 35.0107 103.036 35.1707 103.036 35.384V37.224H105.052C105.234 37.224 105.372 37.2667 105.468 37.352C105.564 37.4373 105.612 37.56 105.612 37.72C105.612 37.88 105.564 38.008 105.468 38.104C105.372 38.1893 105.234 38.232 105.052 38.232H103.036V42.184C103.036 42.792 103.164 43.256 103.42 43.576C103.676 43.8853 104.092 44.04 104.668 44.04C104.871 44.04 105.042 44.0187 105.18 43.976C105.33 43.9333 105.452 43.912 105.548 43.912C105.644 43.9013 105.724 43.9333 105.788 44.008C105.852 44.0827 105.884 44.2107 105.884 44.392C105.884 44.52 105.858 44.6373 105.804 44.744C105.762 44.8507 105.682 44.9253 105.564 44.968C105.436 45.0107 105.266 45.048 105.052 45.08C104.85 45.1227 104.663 45.144 104.492 45.144ZM110.392 45.144C109.571 45.144 108.861 44.984 108.264 44.664C107.677 44.3333 107.219 43.8693 106.888 43.272C106.568 42.6747 106.408 41.96 106.408 41.128C106.408 40.3173 106.568 39.6133 106.888 39.016C107.208 38.408 107.645 37.9333 108.2 37.592C108.765 37.2507 109.416 37.08 110.152 37.08C110.675 37.08 111.144 37.1707 111.56 37.352C111.976 37.5227 112.328 37.7733 112.616 38.104C112.915 38.4347 113.139 38.8347 113.288 39.304C113.448 39.7733 113.528 40.3013 113.528 40.888C113.528 41.0587 113.48 41.1867 113.384 41.272C113.288 41.3467 113.149 41.384 112.968 41.384H107.4V40.536H112.664L112.408 40.744C112.408 40.168 112.323 39.6827 112.152 39.288C111.981 38.8827 111.731 38.5733 111.4 38.36C111.08 38.1467 110.675 38.04 110.184 38.04C109.64 38.04 109.176 38.168 108.792 38.424C108.419 38.6693 108.136 39.016 107.944 39.464C107.752 39.9013 107.656 40.4133 107.656 41V41.096C107.656 42.0773 107.891 42.824 108.36 43.336C108.84 43.848 109.517 44.104 110.392 44.104C110.755 44.104 111.112 44.056 111.464 43.96C111.827 43.864 112.179 43.704 112.52 43.48C112.669 43.384 112.803 43.3413 112.92 43.352C113.048 43.352 113.149 43.3893 113.224 43.464C113.299 43.528 113.347 43.6133 113.368 43.72C113.4 43.816 113.389 43.9227 113.336 44.04C113.293 44.1573 113.203 44.2587 113.064 44.344C112.712 44.6 112.296 44.7973 111.816 44.936C111.336 45.0747 110.861 45.144 110.392 45.144Z" fill="#222B29"/>
<path d="M162 37L168 43L174 37" stroke="#222B29" stroke-width="1.5" stroke-linecap="round" stroke-linejoin="round"/>
<rect x="20.2" y="620.2" width="167.6" height="39.6" rx="3.8" fill="white"/>
<rect x="20.2" y="620.2" width="167.6" height="39.6" rx="3.8" stroke="#222B29" stroke-width="0.4"/>
<path d="M29.152 645.112C28.9813 645.112 28.8427 645.075 28.736 645C28.64 644.915 28.5813 644.808 28.56 644.68C28.5493 644.541 28.5813 644.387 28.656 644.216L33.056 634.2C33.152 633.987 33.264 633.837 33.392 633.752C33.5307 633.656 33.68 633.608 33.84 633.608C34 633.608 34.144 633.656 34.272 633.752C34.4107 633.837 34.5227 633.987 34.608 634.2L39.024 644.216C39.1093 644.387 39.1413 644.541 39.12 644.68C39.1093 644.819 39.056 644.925 38.96 645C38.864 645.075 38.7307 645.112 38.56 645.112C38.368 645.112 38.2133 645.064 38.096 644.968C37.9787 644.861 37.8827 644.712 37.808 644.52L36.624 641.784L37.264 642.12H30.384L31.04 641.784L29.872 644.52C29.776 644.723 29.6747 644.872 29.568 644.968C29.4613 645.064 29.3227 645.112 29.152 645.112ZM33.824 635.256L31.248 641.32L30.864 641.016H36.784L36.432 641.32L33.856 635.256H33.824ZM42.1363 645C41.9443 645 41.7949 644.952 41.6883 644.856C41.5816 644.749 41.5283 644.605 41.5283 644.424C41.5283 644.243 41.5816 644.109 41.6883 644.024C41.7949 643.928 41.9443 643.88 42.1363 643.88H44.2163V634.808H44.9043L42.5843 636.344C42.4456 636.419 42.3123 636.451 42.1843 636.44C42.0669 636.429 41.9656 636.387 41.8803 636.312C41.8056 636.227 41.7523 636.131 41.7203 636.024C41.6883 635.907 41.6936 635.789 41.7363 635.672C41.7789 635.544 41.8696 635.437 42.0082 635.352L44.2163 633.896C44.3549 633.811 44.4883 633.741 44.6163 633.688C44.7443 633.635 44.8723 633.608 45.0003 633.608C45.1496 633.608 45.2723 633.656 45.3683 633.752C45.4749 633.837 45.5283 633.976 45.5283 634.168V643.88H47.4483C47.6403 643.88 47.7896 643.928 47.8963 644.024C48.0029 644.109 48.0563 644.243 48.0563 644.424C48.0563 644.616 48.0029 644.76 47.8963 644.856C47.7896 644.952 47.6403 645 47.4483 645H42.1363Z" fill="#222B29"/>
<path d="M162 637L168 643L174 637" stroke="#222B29" stroke-width="1.5" stroke-linecap="round" stroke-linejoin="round"/>
<rect x="20.2" y="676.2" width="167.6" height="39.6" rx="3.8" fill="white"/>
<rect x="20.2" y="676.2" width="167.6" height="39.6" rx="3.8" stroke="#222B29" stroke-width="0.4"/>
<path d="M29.152 701.112C28.9813 701.112 28.8427 701.075 28.736 701C28.64 700.915 28.5813 700.808 28.56 700.68C28.5493 700.541 28.5813 700.387 28.656 700.216L33.056 690.2C33.152 689.987 33.264 689.837 33.392 689.752C33.5307 689.656 33.68 689.608 33.84 689.608C34 689.608 34.144 689.656 34.272 689.752C34.4107 689.837 34.5227 689.987 34.608 690.2L39.024 700.216C39.1093 700.387 39.1413 700.541 39.12 700.68C39.1093 700.819 39.056 700.925 38.96 701C38.864 701.075 38.7307 701.112 38.56 701.112C38.368 701.112 38.2133 701.064 38.096 700.968C37.9787 700.861 37.8827 700.712 37.808 700.52L36.624 697.784L37.264 698.12H30.384L31.04 697.784L29.872 700.52C29.776 700.723 29.6747 700.872 29.568 700.968C29.4613 701.064 29.3227 701.112 29.152 701.112ZM33.824 691.256L31.248 697.32L30.864 697.016H36.784L36.432 697.32L33.856 691.256H33.824ZM41.7203 701C41.4856 701 41.3096 700.947 41.1923 700.84C41.0856 700.723 41.0323 700.568 41.0323 700.376C41.0323 700.259 41.0589 700.147 41.1123 700.04C41.1763 699.923 41.2616 699.805 41.3683 699.688L44.9523 695.848C45.4963 695.261 45.8856 694.723 46.1203 694.232C46.3656 693.731 46.4883 693.224 46.4883 692.712C46.4883 692.072 46.2909 691.587 45.8963 691.256C45.5123 690.915 44.9469 690.744 44.2003 690.744C43.7203 690.744 43.2669 690.819 42.8403 690.968C42.4136 691.117 42.0029 691.347 41.6083 691.656C41.4696 691.763 41.3416 691.811 41.2243 691.8C41.1176 691.789 41.0216 691.747 40.9363 691.672C40.8509 691.597 40.7923 691.501 40.7603 691.384C40.7283 691.267 40.7283 691.149 40.7603 691.032C40.8029 690.915 40.8883 690.808 41.0163 690.712C41.4323 690.371 41.9336 690.099 42.5203 689.896C43.1069 689.683 43.7043 689.576 44.3123 689.576C45.0696 689.576 45.7096 689.693 46.2323 689.928C46.7549 690.163 47.1496 690.509 47.4163 690.968C47.6829 691.416 47.8163 691.965 47.8163 692.616C47.8163 693.064 47.7416 693.507 47.5923 693.944C47.4536 694.371 47.2349 694.808 46.9363 695.256C46.6483 695.704 46.2696 696.168 45.8003 696.648L42.3923 700.248V699.88H47.7843C47.9869 699.88 48.1363 699.928 48.2323 700.024C48.3389 700.109 48.3923 700.243 48.3923 700.424C48.3923 700.616 48.3389 700.76 48.2323 700.856C48.1363 700.952 47.9869 701 47.7843 701H41.7203Z" fill="#222B29"/>
<path d="M162 693L168 699L174 693" stroke="#222B29" stroke-width="1.5" stroke-linecap="round" stroke-linejoin="round"/>
<rect x="20.2" y="732.2" width="167.6" height="39.6" rx="3.8" fill="white"/>
<rect x="20.2" y="732.2" width="167.6" height="39.6" rx="3.8" stroke="#222B29" stroke-width="0.4"/>
<path d="M29.152 757.112C28.9813 757.112 28.8427 757.075 28.736 757C28.64 756.915 28.5813 756.808 28.56 756.68C28.5493 756.541 28.5813 756.387 28.656 756.216L33.056 746.2C33.152 745.987 33.264 745.837 33.392 745.752C33.5307 745.656 33.68 745.608 33.84 745.608C34 745.608 34.144 745.656 34.272 745.752C34.4107 745.837 34.5227 745.987 34.608 746.2L39.024 756.216C39.1093 756.387 39.1413 756.541 39.12 756.68C39.1093 756.819 39.056 756.925 38.96 757C38.864 757.075 38.7307 757.112 38.56 757.112C38.368 757.112 38.2133 757.064 38.096 756.968C37.9787 756.861 37.8827 756.712 37.808 756.52L36.624 753.784L37.264 754.12H30.384L31.04 753.784L29.872 756.52C29.776 756.723 29.6747 756.872 29.568 756.968C29.4613 757.064 29.3227 757.112 29.152 757.112ZM33.824 747.256L31.248 753.32L30.864 753.016H36.784L36.432 753.32L33.856 747.256H33.824ZM44.3283 757.144C43.7096 757.144 43.0856 757.053 42.4563 756.872C41.8376 756.691 41.2989 756.424 40.8403 756.072C40.7016 755.976 40.6109 755.869 40.5683 755.752C40.5256 755.624 40.5149 755.507 40.5363 755.4C40.5683 755.283 40.6269 755.187 40.7122 755.112C40.7976 755.027 40.8989 754.979 41.0163 754.968C41.1443 754.957 41.2829 755 41.4323 755.096C41.9016 755.405 42.3709 755.629 42.8403 755.768C43.3096 755.907 43.7949 755.976 44.2963 755.976C44.8403 755.976 45.2989 755.896 45.6723 755.736C46.0456 755.576 46.3283 755.341 46.5203 755.032C46.7123 754.712 46.8083 754.323 46.8083 753.864C46.8083 753.203 46.5896 752.701 46.1523 752.36C45.7149 752.019 45.0803 751.848 44.2483 751.848H43.1123C42.9096 751.848 42.7549 751.8 42.6483 751.704C42.5416 751.597 42.4883 751.453 42.4883 751.272C42.4883 751.101 42.5416 750.968 42.6483 750.872C42.7549 750.765 42.9096 750.712 43.1123 750.712H44.1363C44.6269 750.712 45.0429 750.627 45.3843 750.456C45.7363 750.285 46.0083 750.045 46.2003 749.736C46.3923 749.416 46.4883 749.032 46.4883 748.584C46.4883 747.987 46.2963 747.533 45.9123 747.224C45.5283 746.904 44.9736 746.744 44.2483 746.744C43.7683 746.744 43.3149 746.813 42.8883 746.952C42.4616 747.091 42.0403 747.325 41.6243 747.656C41.4963 747.752 41.3683 747.8 41.2403 747.8C41.1229 747.789 41.0216 747.752 40.9363 747.688C40.8616 747.613 40.8029 747.517 40.7603 747.4C40.7283 747.283 40.7336 747.165 40.7763 747.048C40.8189 746.92 40.9096 746.803 41.0483 746.696C41.4749 746.333 41.9763 746.056 42.5523 745.864C43.1283 745.672 43.7203 745.576 44.3283 745.576C45.0536 745.576 45.6723 745.693 46.1843 745.928C46.7069 746.152 47.1069 746.483 47.3843 746.92C47.6616 747.347 47.8003 747.864 47.8003 748.472C47.8003 748.931 47.7096 749.352 47.5283 749.736C47.3576 750.109 47.1123 750.429 46.7923 750.696C46.4829 750.963 46.1043 751.155 45.6563 751.272V751.096C46.4349 751.224 47.0376 751.544 47.4643 752.056C47.9016 752.557 48.1203 753.192 48.1203 753.96C48.1203 754.611 47.9656 755.176 47.6562 755.656C47.3576 756.125 46.9256 756.493 46.3603 756.76C45.7949 757.016 45.1176 757.144 44.3283 757.144Z" fill="#222B29"/>
<path d="M162 749L168 755L174 749" stroke="#222B29" stroke-width="1.5" stroke-linecap="round" stroke-linejoin="round"/>
<rect x="20.2" y="788.2" width="167.6" height="39.6" rx="3.8" fill="white"/>
<rect x="20.2" y="788.2" width="167.6" height="39.6" rx="3.8" stroke="#222B29" stroke-width="0.4"/>
<path d="M29.152 813.112C28.9813 813.112 28.8427 813.075 28.736 813C28.64 812.915 28.5813 812.808 28.56 812.68C28.5493 812.541 28.5813 812.387 28.656 812.216L33.056 802.2C33.152 801.987 33.264 801.837 33.392 801.752C33.5307 801.656 33.68 801.608 33.84 801.608C34 801.608 34.144 801.656 34.272 801.752C34.4107 801.837 34.5227 801.987 34.608 802.2L39.024 812.216C39.1093 812.387 39.1413 812.541 39.12 812.68C39.1093 812.819 39.056 812.925 38.96 813C38.864 813.075 38.7307 813.112 38.56 813.112C38.368 813.112 38.2133 813.064 38.096 812.968C37.9787 812.861 37.8827 812.712 37.808 812.52L36.624 809.784L37.264 810.12H30.384L31.04 809.784L29.872 812.52C29.776 812.723 29.6747 812.872 29.568 812.968C29.4613 813.064 29.3227 813.112 29.152 813.112ZM33.824 803.256L31.248 809.32L30.864 809.016H36.784L36.432 809.32L33.856 803.256H33.824ZM46.3443 813.112C46.1416 813.112 45.9816 813.053 45.8643 812.936C45.7469 812.819 45.6883 812.653 45.6883 812.44V810.584H41.0963C40.8829 810.584 40.7123 810.536 40.5843 810.44C40.4669 810.333 40.4083 810.184 40.4083 809.992C40.4083 809.875 40.4349 809.757 40.4883 809.64C40.5416 809.512 40.6376 809.352 40.7763 809.16L45.6563 802.056C45.7523 801.907 45.8589 801.795 45.9763 801.72C46.0936 801.645 46.2323 801.608 46.3923 801.608C46.5629 801.608 46.7069 801.661 46.8243 801.768C46.9523 801.875 47.0163 802.045 47.0163 802.28V809.464H48.1843C48.3869 809.464 48.5416 809.512 48.6483 809.608C48.7549 809.704 48.8083 809.843 48.8083 810.024C48.8083 810.205 48.7549 810.344 48.6483 810.44C48.5416 810.536 48.3869 810.584 48.1843 810.584H47.0163V812.44C47.0163 812.653 46.9576 812.819 46.8403 812.936C46.7229 813.053 46.5576 813.112 46.3443 813.112ZM45.6883 809.464V803.256H46.0723L41.5923 809.816V809.464H45.6883Z" fill="#222B29"/>
<path d="M162 805L168 811L174 805" stroke="#222B29" stroke-width="1.5" stroke-linecap="round" stroke-linejoin="round"/>
<rect x="20.2" y="844.2" width="167.6" height="39.6" rx="3.8" fill="white"/>
<rect x="20.2" y="844.2" width="167.6" height="39.6" rx="3.8" stroke="#222B29" stroke-width="0.4"/>
<path d="M29.152 869.112C28.9813 869.112 28.8427 869.075 28.736 869C28.64 868.915 28.5813 868.808 28.56 868.68C28.5493 868.541 28.5813 868.387 28.656 868.216L33.056 858.2C33.152 857.987 33.264 857.837 33.392 857.752C33.5307 857.656 33.68 857.608 33.84 857.608C34 857.608 34.144 857.656 34.272 857.752C34.4107 857.837 34.5227 857.987 34.608 858.2L39.024 868.216C39.1093 868.387 39.1413 868.541 39.12 868.68C39.1093 868.819 39.056 868.925 38.96 869C38.864 869.075 38.7307 869.112 38.56 869.112C38.368 869.112 38.2133 869.064 38.096 868.968C37.9787 868.861 37.8827 868.712 37.808 868.52L36.624 865.784L37.264 866.12H30.384L31.04 865.784L29.872 868.52C29.776 868.723 29.6747 868.872 29.568 868.968C29.4613 869.064 29.3227 869.112 29.152 869.112ZM33.824 859.256L31.248 865.32L30.864 865.016H36.784L36.432 865.32L33.856 859.256H33.824ZM44.6963 869.144C44.0883 869.144 43.4803 869.053 42.8723 868.872C42.2749 868.691 41.7309 868.408 41.2403 868.024C41.1123 867.939 41.0269 867.837 40.9843 867.72C40.9416 867.603 40.9363 867.485 40.9683 867.368C41.0003 867.251 41.0589 867.155 41.1443 867.08C41.2296 866.995 41.3309 866.947 41.4483 866.936C41.5763 866.925 41.7096 866.968 41.8483 867.064C42.2856 867.373 42.7389 867.603 43.2083 867.752C43.6776 867.901 44.1683 867.976 44.6803 867.976C45.2029 867.976 45.6509 867.88 46.0243 867.688C46.4083 867.485 46.6963 867.208 46.8883 866.856C47.0909 866.493 47.1923 866.072 47.1923 865.592C47.1923 864.856 46.9789 864.253 46.5523 863.784C46.1256 863.315 45.5389 863.08 44.7923 863.08C44.3336 863.08 43.9123 863.165 43.5283 863.336C43.1443 863.507 42.7923 863.779 42.4723 864.152C42.3976 864.237 42.3069 864.312 42.2003 864.376C42.1043 864.429 41.9923 864.456 41.8643 864.456C41.6829 864.456 41.5389 864.408 41.4323 864.312C41.3363 864.205 41.2883 864.067 41.2883 863.896V858.328C41.2883 858.125 41.3416 857.976 41.4483 857.88C41.5549 857.773 41.7043 857.72 41.8963 857.72H47.3363C47.5389 857.72 47.6883 857.768 47.7843 857.864C47.8909 857.96 47.9443 858.099 47.9443 858.28C47.9443 858.461 47.8909 858.6 47.7843 858.696C47.6883 858.792 47.5389 858.84 47.3363 858.84H42.5843V863.336H42.2323C42.5096 862.888 42.8936 862.547 43.3843 862.312C43.8749 862.067 44.4243 861.944 45.0323 861.944C45.7469 861.944 46.3603 862.093 46.8723 862.392C47.3949 862.691 47.7949 863.112 48.0723 863.656C48.3603 864.189 48.5043 864.813 48.5043 865.528C48.5043 866.232 48.3496 866.856 48.0403 867.4C47.7309 867.944 47.2936 868.371 46.7283 868.68C46.1629 868.989 45.4856 869.144 44.6963 869.144Z" fill="#222B29"/>
<path d="M162 861L168 867L174 861" stroke="#222B29" stroke-width="1.5" stroke-linecap="round" stroke-linejoin="round"/>
<rect x="20.2" y="900.2" width="167.6" height="39.6" rx="3.8" fill="white"/>
<rect x="20.2" y="900.2" width="167.6" height="39.6" rx="3.8" stroke="#222B29" stroke-width="0.4"/>
<path d="M29.152 925.112C28.9813 925.112 28.8427 925.075 28.736 925C28.64 924.915 28.5813 924.808 28.56 924.68C28.5493 924.541 28.5813 924.387 28.656 924.216L33.056 914.2C33.152 913.987 33.264 913.837 33.392 913.752C33.5307 913.656 33.68 913.608 33.84 913.608C34 913.608 34.144 913.656 34.272 913.752C34.4107 913.837 34.5227 913.987 34.608 914.2L39.024 924.216C39.1093 924.387 39.1413 924.541 39.12 924.68C39.1093 924.819 39.056 924.925 38.96 925C38.864 925.075 38.7307 925.112 38.56 925.112C38.368 925.112 38.2133 925.064 38.096 924.968C37.9787 924.861 37.8827 924.712 37.808 924.52L36.624 921.784L37.264 922.12H30.384L31.04 921.784L29.872 924.52C29.776 924.723 29.6747 924.872 29.568 924.968C29.4613 925.064 29.3227 925.112 29.152 925.112ZM33.824 915.256L31.248 921.32L30.864 921.016H36.784L36.432 921.32L33.856 915.256H33.824ZM44.8403 925.144C43.9549 925.144 43.1976 924.931 42.5683 924.504C41.9496 924.067 41.4803 923.437 41.1603 922.616C40.8403 921.795 40.6803 920.803 40.6803 919.64C40.6803 918.659 40.7816 917.795 40.9843 917.048C41.1869 916.301 41.4856 915.672 41.8803 915.16C42.2749 914.637 42.7549 914.243 43.3203 913.976C43.8856 913.709 44.5256 913.576 45.2403 913.576C45.7309 913.576 46.2323 913.672 46.7443 913.864C47.2669 914.056 47.7256 914.328 48.1203 914.68C48.2376 914.765 48.3069 914.872 48.3283 915C48.3603 915.117 48.3603 915.235 48.3283 915.352C48.2963 915.459 48.2376 915.549 48.1523 915.624C48.0776 915.699 47.9816 915.741 47.8643 915.752C47.7469 915.752 47.6243 915.704 47.4963 915.608C47.1336 915.299 46.7603 915.08 46.3763 914.952C45.9923 914.813 45.6029 914.744 45.2083 914.744C44.5149 914.744 43.9229 914.915 43.4323 915.256C42.9523 915.597 42.5843 916.115 42.3283 916.808C42.0829 917.491 41.9603 918.349 41.9603 919.384V920.872H41.8163C41.8803 920.264 42.0563 919.741 42.3443 919.304C42.6429 918.856 43.0216 918.515 43.4803 918.28C43.9389 918.045 44.4563 917.928 45.0323 917.928C45.6936 917.928 46.2803 918.077 46.7923 918.376C47.3043 918.675 47.7043 919.096 47.9923 919.64C48.2803 920.173 48.4243 920.787 48.4243 921.48C48.4243 922.184 48.2749 922.813 47.9763 923.368C47.6776 923.923 47.2563 924.36 46.7123 924.68C46.1683 924.989 45.5443 925.144 44.8403 925.144ZM44.7603 924.024C45.2296 924.024 45.6456 923.923 46.0083 923.72C46.3709 923.507 46.6536 923.213 46.8563 922.84C47.0589 922.456 47.1603 922.019 47.1603 921.528C47.1603 921.037 47.0589 920.605 46.8563 920.232C46.6536 919.859 46.3709 919.565 46.0083 919.352C45.6456 919.139 45.2296 919.032 44.7603 919.032C44.2909 919.032 43.8749 919.139 43.5123 919.352C43.1496 919.565 42.8669 919.859 42.6643 920.232C42.4616 920.605 42.3603 921.037 42.3603 921.528C42.3603 922.019 42.4616 922.456 42.6643 922.84C42.8669 923.213 43.1496 923.507 43.5123 923.72C43.8749 923.923 44.2909 924.024 44.7603 924.024Z" fill="#222B29"/>
<path d="M162 917L168 923L174 917" stroke="#222B29" stroke-width="1.5" stroke-linecap="round" stroke-linejoin="round"/>
<rect x="20.2" y="956.2" width="167.6" height="39.6" rx="3.8" fill="white"/>
<rect x="20.2" y="956.2" width="167.6" height="39.6" rx="3.8" stroke="#222B29" stroke-width="0.4"/>
<path d="M29.152 981.112C28.9813 981.112 28.8427 981.075 28.736 981C28.64 980.915 28.5813 980.808 28.56 980.68C28.5493 980.541 28.5813 980.387 28.656 980.216L33.056 970.2C33.152 969.987 33.264 969.837 33.392 969.752C33.5307 969.656 33.68 969.608 33.84 969.608C34 969.608 34.144 969.656 34.272 969.752C34.4107 969.837 34.5227 969.987 34.608 970.2L39.024 980.216C39.1093 980.387 39.1413 980.541 39.12 980.68C39.1093 980.819 39.056 980.925 38.96 981C38.864 981.075 38.7307 981.112 38.56 981.112C38.368 981.112 38.2133 981.064 38.096 980.968C37.9787 980.861 37.8827 980.712 37.808 980.52L36.624 977.784L37.264 978.12H30.384L31.04 977.784L29.872 980.52C29.776 980.723 29.6747 980.872 29.568 980.968C29.4613 981.064 29.3227 981.112 29.152 981.112ZM33.824 971.256L31.248 977.32L30.864 977.016H36.784L36.432 977.32L33.856 971.256H33.824ZM42.3443 981.112C42.1949 981.112 42.0669 981.075 41.9603 981C41.8536 980.925 41.7843 980.824 41.7523 980.696C41.7309 980.557 41.7629 980.408 41.8483 980.248L46.9843 970.28V970.856H41.2243C41.0323 970.856 40.8829 970.808 40.7763 970.712C40.6696 970.605 40.6163 970.461 40.6163 970.28C40.6163 970.099 40.6696 969.96 40.7763 969.864C40.8829 969.768 41.0323 969.72 41.2243 969.72H47.5763C47.7683 969.72 47.9229 969.768 48.0403 969.864C48.1576 969.96 48.2163 970.099 48.2163 970.28C48.2163 970.429 48.1949 970.563 48.1523 970.68C48.1203 970.787 48.0723 970.909 48.0083 971.048L43.0803 980.664C43.0056 980.813 42.9096 980.925 42.7923 981C42.6749 981.075 42.5256 981.112 42.3443 981.112Z" fill="#222B29"/>
<path d="M162 973L168 979L174 973" stroke="#222B29" stroke-width="1.5" stroke-linecap="round" stroke-linejoin="round"/>
<rect x="20.2" y="1012.2" width="167.6" height="39.6" rx="3.8" fill="white"/>
<rect x="20.2" y="1012.2" width="167.6" height="39.6" rx="3.8" stroke="#222B29" stroke-width="0.4"/>
<path d="M29.152 1037.11C28.9813 1037.11 28.8427 1037.07 28.736 1037C28.64 1036.91 28.5813 1036.81 28.56 1036.68C28.5493 1036.54 28.5813 1036.39 28.656 1036.22L33.056 1026.2C33.152 1025.99 33.264 1025.84 33.392 1025.75C33.5307 1025.66 33.68 1025.61 33.84 1025.61C34 1025.61 34.144 1025.66 34.272 1025.75C34.4107 1025.84 34.5227 1025.99 34.608 1026.2L39.024 1036.22C39.1093 1036.39 39.1413 1036.54 39.12 1036.68C39.1093 1036.82 39.056 1036.93 38.96 1037C38.864 1037.07 38.7307 1037.11 38.56 1037.11C38.368 1037.11 38.2133 1037.06 38.096 1036.97C37.9787 1036.86 37.8827 1036.71 37.808 1036.52L36.624 1033.78L37.264 1034.12H30.384L31.04 1033.78L29.872 1036.52C29.776 1036.72 29.6747 1036.87 29.568 1036.97C29.4613 1037.06 29.3227 1037.11 29.152 1037.11ZM33.824 1027.26L31.248 1033.32L30.864 1033.02H36.784L36.432 1033.32L33.856 1027.26H33.824ZM44.4563 1037.14C43.6136 1037.14 42.8883 1037.02 42.2803 1036.78C41.6829 1036.53 41.2243 1036.17 40.9043 1035.7C40.5949 1035.23 40.4403 1034.67 40.4403 1034.01C40.4403 1033.49 40.5469 1033.02 40.7603 1032.62C40.9736 1032.2 41.2723 1031.86 41.6562 1031.61C42.0403 1031.35 42.4829 1031.19 42.9843 1031.13V1031.37C42.2909 1031.22 41.7363 1030.89 41.3203 1030.39C40.9149 1029.88 40.7122 1029.28 40.7122 1028.58C40.7122 1027.94 40.8616 1027.41 41.1603 1026.97C41.4696 1026.52 41.9069 1026.18 42.4723 1025.94C43.0376 1025.7 43.6989 1025.58 44.4563 1025.58C45.2243 1025.58 45.8856 1025.7 46.4403 1025.94C47.0056 1026.18 47.4429 1026.52 47.7523 1026.97C48.0616 1027.41 48.2163 1027.94 48.2163 1028.58C48.2163 1029.04 48.1203 1029.47 47.9283 1029.86C47.7469 1030.25 47.4856 1030.57 47.1443 1030.82C46.8029 1031.08 46.4029 1031.26 45.9443 1031.35V1031.13C46.7016 1031.23 47.3096 1031.55 47.7683 1032.07C48.2376 1032.58 48.4722 1033.23 48.4722 1034.01C48.4722 1034.67 48.3123 1035.23 47.9923 1035.7C47.6829 1036.17 47.2243 1036.53 46.6163 1036.78C46.0189 1037.02 45.2989 1037.14 44.4563 1037.14ZM44.4563 1036.06C45.3629 1036.06 46.0456 1035.88 46.5043 1035.53C46.9736 1035.18 47.2083 1034.64 47.2083 1033.93C47.2083 1033.22 46.9736 1032.7 46.5043 1032.36C46.0456 1032.01 45.3629 1031.83 44.4563 1031.83C43.5603 1031.83 42.8776 1032.01 42.4083 1032.36C41.9389 1032.7 41.7043 1033.22 41.7043 1033.93C41.7043 1034.64 41.9389 1035.18 42.4083 1035.53C42.8776 1035.88 43.5603 1036.06 44.4563 1036.06ZM44.4563 1030.74C44.9789 1030.74 45.4216 1030.66 45.7843 1030.5C46.1576 1030.33 46.4456 1030.09 46.6483 1029.78C46.8509 1029.47 46.9523 1029.11 46.9523 1028.7C46.9523 1028.06 46.7283 1027.56 46.2803 1027.21C45.8429 1026.85 45.2349 1026.66 44.4563 1026.66C43.6776 1026.66 43.0696 1026.85 42.6323 1027.21C42.1949 1027.56 41.9763 1028.06 41.9763 1028.7C41.9763 1029.34 42.1949 1029.84 42.6323 1030.2C43.0696 1030.56 43.6776 1030.74 44.4563 1030.74Z" fill="#222B29"/>
<path d="M162 1029L168 1035L174 1029" stroke="#222B29" stroke-width="1.5" stroke-linecap="round" stroke-linejoin="round"/>
<rect x="20.2" y="76.2" width="167.6" height="39.6" rx="3.8" fill="white"/>
<rect x="20.2" y="76.2" width="167.6" height="39.6" rx="3.8" stroke="#222B29" stroke-width="0.4"/>
<path d="M33.04 101.144C32.5387 101.144 32.048 101.101 31.568 101.016C31.088 100.931 30.64 100.808 30.224 100.648C29.8187 100.488 29.4507 100.285 29.12 100.04C28.992 99.944 28.9013 99.8373 28.848 99.72C28.8053 99.592 28.7947 99.4693 28.816 99.352C28.848 99.224 28.9013 99.1173 28.976 99.032C29.0613 98.9467 29.1627 98.8987 29.28 98.888C29.3973 98.8773 29.5253 98.9147 29.664 99C30.144 99.3413 30.656 99.592 31.2 99.752C31.744 99.9013 32.3573 99.976 33.04 99.976C34 99.976 34.7093 99.8 35.168 99.448C35.6373 99.0853 35.872 98.6107 35.872 98.024C35.872 97.544 35.7013 97.1707 35.36 96.904C35.0293 96.6267 34.4693 96.408 33.68 96.248L32.016 95.912C31.0133 95.6987 30.2613 95.352 29.76 94.872C29.2693 94.3813 29.024 93.7307 29.024 92.92C29.024 92.4187 29.1253 91.9653 29.328 91.56C29.5307 91.144 29.8133 90.792 30.176 90.504C30.5387 90.2053 30.9707 89.976 31.472 89.816C31.9733 89.656 32.528 89.576 33.136 89.576C33.808 89.576 34.432 89.672 35.008 89.864C35.5947 90.0453 36.1227 90.3227 36.592 90.696C36.7093 90.792 36.7893 90.904 36.832 91.032C36.8747 91.1493 36.88 91.2667 36.848 91.384C36.816 91.4907 36.7573 91.5813 36.672 91.656C36.5973 91.7307 36.496 91.7733 36.368 91.784C36.2507 91.7947 36.1173 91.752 35.968 91.656C35.5413 91.336 35.0987 91.1067 34.64 90.968C34.1813 90.8187 33.6747 90.744 33.12 90.744C32.5547 90.744 32.064 90.8293 31.648 91C31.2427 91.1707 30.9227 91.4213 30.688 91.752C30.464 92.072 30.352 92.4453 30.352 92.872C30.352 93.384 30.5067 93.7893 30.816 94.088C31.136 94.3867 31.6533 94.6053 32.368 94.744L34.032 95.096C35.1093 95.32 35.904 95.6613 36.416 96.12C36.9387 96.568 37.2 97.1813 37.2 97.96C37.2 98.4293 37.104 98.8613 36.912 99.256C36.72 99.6507 36.4427 99.992 36.08 100.28C35.7173 100.557 35.28 100.771 34.768 100.92C34.256 101.069 33.68 101.144 33.04 101.144ZM42.5638 101.144C41.7424 101.144 41.0331 100.984 40.4358 100.664C39.8491 100.333 39.3904 99.8693 39.0598 99.272C38.7398 98.6747 38.5798 97.96 38.5798 97.128C38.5798 96.3173 38.7398 95.6133 39.0598 95.016C39.3798 94.408 39.8171 93.9333 40.3718 93.592C40.9371 93.2507 41.5878 93.08 42.3238 93.08C42.8464 93.08 43.3158 93.1707 43.7318 93.352C44.1478 93.5227 44.4998 93.7733 44.7878 94.104C45.0864 94.4347 45.3104 94.8347 45.4598 95.304C45.6198 95.7733 45.6998 96.3013 45.6998 96.888C45.6998 97.0587 45.6518 97.1867 45.5558 97.272C45.4598 97.3467 45.3211 97.384 45.1398 97.384H39.5718V96.536H44.8358L44.5798 96.744C44.5798 96.168 44.4944 95.6827 44.3238 95.288C44.1531 94.8827 43.9024 94.5733 43.5718 94.36C43.2518 94.1467 42.8464 94.04 42.3558 94.04C41.8118 94.04 41.3478 94.168 40.9638 94.424C40.5904 94.6693 40.3078 95.016 40.1158 95.464C39.9238 95.9013 39.8278 96.4133 39.8278 97V97.096C39.8278 98.0773 40.0624 98.824 40.5318 99.336C41.0118 99.848 41.6891 100.104 42.5638 100.104C42.9264 100.104 43.2838 100.056 43.6358 99.96C43.9984 99.864 44.3504 99.704 44.6918 99.48C44.8411 99.384 44.9744 99.3413 45.0918 99.352C45.2198 99.352 45.3211 99.3893 45.3958 99.464C45.4704 99.528 45.5184 99.6133 45.5398 99.72C45.5718 99.816 45.5611 99.9227 45.5078 100.04C45.4651 100.157 45.3744 100.259 45.2358 100.344C44.8838 100.6 44.4678 100.797 43.9878 100.936C43.5078 101.075 43.0331 101.144 42.5638 101.144ZM49.9434 101.144C49.1754 101.144 48.5887 100.909 48.1834 100.44C47.778 99.9707 47.5754 99.2987 47.5754 98.424V90.264C47.5754 90.0507 47.6287 89.8907 47.7354 89.784C47.842 89.6667 48.002 89.608 48.2154 89.608C48.418 89.608 48.578 89.6667 48.6954 89.784C48.8127 89.8907 48.8714 90.0507 48.8714 90.264V98.328C48.8714 98.904 48.9834 99.336 49.2074 99.624C49.442 99.9013 49.7834 100.04 50.2314 100.04C50.3274 100.04 50.4127 100.035 50.4874 100.024C50.562 100.013 50.6367 100.008 50.7114 100.008C50.8287 99.9973 50.9087 100.024 50.9514 100.088C51.0047 100.152 51.0314 100.28 51.0314 100.472C51.0314 100.664 50.9887 100.808 50.9034 100.904C50.818 101 50.6794 101.064 50.4874 101.096C50.402 101.107 50.3114 101.117 50.2154 101.128C50.1194 101.139 50.0287 101.144 49.9434 101.144ZM55.7356 101.144C54.9143 101.144 54.205 100.984 53.6076 100.664C53.021 100.333 52.5623 99.8693 52.2316 99.272C51.9116 98.6747 51.7516 97.96 51.7516 97.128C51.7516 96.3173 51.9116 95.6133 52.2316 95.016C52.5516 94.408 52.989 93.9333 53.5436 93.592C54.109 93.2507 54.7596 93.08 55.4956 93.08C56.0183 93.08 56.4876 93.1707 56.9036 93.352C57.3196 93.5227 57.6716 93.7733 57.9596 94.104C58.2583 94.4347 58.4823 94.8347 58.6316 95.304C58.7916 95.7733 58.8716 96.3013 58.8716 96.888C58.8716 97.0587 58.8236 97.1867 58.7276 97.272C58.6316 97.3467 58.493 97.384 58.3116 97.384H52.7436V96.536H58.0076L57.7516 96.744C57.7516 96.168 57.6663 95.6827 57.4956 95.288C57.325 94.8827 57.0743 94.5733 56.7436 94.36C56.4236 94.1467 56.0183 94.04 55.5276 94.04C54.9836 94.04 54.5196 94.168 54.1356 94.424C53.7623 94.6693 53.4796 95.016 53.2876 95.464C53.0956 95.9013 52.9996 96.4133 52.9996 97V97.096C52.9996 98.0773 53.2343 98.824 53.7036 99.336C54.1836 99.848 54.861 100.104 55.7356 100.104C56.0983 100.104 56.4556 100.056 56.8076 99.96C57.1703 99.864 57.5223 99.704 57.8636 99.48C58.013 99.384 58.1463 99.3413 58.2636 99.352C58.3916 99.352 58.493 99.3893 58.5676 99.464C58.6423 99.528 58.6903 99.6133 58.7116 99.72C58.7436 99.816 58.733 99.9227 58.6796 100.04C58.637 100.157 58.5463 100.259 58.4076 100.344C58.0556 100.6 57.6396 100.797 57.1596 100.936C56.6796 101.075 56.205 101.144 55.7356 101.144ZM64.0433 101.144C63.2646 101.144 62.5926 100.973 62.0273 100.632C61.4619 100.291 61.0246 99.816 60.7153 99.208C60.4166 98.5893 60.2673 97.8747 60.2673 97.064C60.2673 96.4453 60.3526 95.8907 60.5233 95.4C60.6939 94.9093 60.9446 94.4933 61.2753 94.152C61.6059 93.8 62.0006 93.5333 62.4593 93.352C62.9286 93.1707 63.4566 93.08 64.0433 93.08C64.4273 93.08 64.8273 93.1387 65.2433 93.256C65.6593 93.3733 66.0379 93.576 66.3793 93.864C66.4859 93.9387 66.5553 94.0293 66.5873 94.136C66.6193 94.2427 66.6193 94.3493 66.5873 94.456C66.5553 94.552 66.5019 94.6373 66.4273 94.712C66.3526 94.776 66.2566 94.8133 66.1393 94.824C66.0326 94.8347 65.9206 94.7973 65.8033 94.712C65.5259 94.4987 65.2433 94.3493 64.9553 94.264C64.6673 94.1787 64.3899 94.136 64.1233 94.136C63.7073 94.136 63.3446 94.2053 63.0353 94.344C62.7259 94.472 62.4646 94.6587 62.2513 94.904C62.0379 95.1493 61.8726 95.4533 61.7553 95.816C61.6486 96.1787 61.5953 96.6 61.5953 97.08C61.5953 98.008 61.8139 98.744 62.2513 99.288C62.6886 99.8213 63.3126 100.088 64.1233 100.088C64.3899 100.088 64.6619 100.045 64.9393 99.96C65.2273 99.8747 65.5153 99.7253 65.8033 99.512C65.9206 99.4267 66.0326 99.3893 66.1393 99.4C66.2459 99.4107 66.3366 99.4533 66.4113 99.528C66.4859 99.592 66.5339 99.6773 66.5553 99.784C66.5873 99.8907 66.5873 99.9973 66.5553 100.104C66.5233 100.2 66.4539 100.285 66.3473 100.36C66.0059 100.637 65.6326 100.84 65.2273 100.968C64.8219 101.085 64.4273 101.144 64.0433 101.144ZM71.2735 101.144C70.6655 101.144 70.1535 101.037 69.7375 100.824C69.3322 100.6 69.0282 100.28 68.8255 99.864C68.6228 99.4373 68.5215 98.92 68.5215 98.312V94.232H67.4495C67.2682 94.232 67.1295 94.1893 67.0335 94.104C66.9375 94.008 66.8895 93.88 66.8895 93.72C66.8895 93.56 66.9375 93.4373 67.0335 93.352C67.1295 93.2667 67.2682 93.224 67.4495 93.224H68.5215V91.384C68.5215 91.1707 68.5802 91.0107 68.6975 90.904C68.8148 90.7867 68.9748 90.728 69.1775 90.728C69.3802 90.728 69.5348 90.7867 69.6415 90.904C69.7588 91.0107 69.8175 91.1707 69.8175 91.384V93.224H71.8335C72.0148 93.224 72.1535 93.2667 72.2495 93.352C72.3455 93.4373 72.3935 93.56 72.3935 93.72C72.3935 93.88 72.3455 94.008 72.2495 94.104C72.1535 94.1893 72.0148 94.232 71.8335 94.232H69.8175V98.184C69.8175 98.792 69.9455 99.256 70.2015 99.576C70.4575 99.8853 70.8735 100.04 71.4495 100.04C71.6522 100.04 71.8228 100.019 71.9615 99.976C72.1108 99.9333 72.2335 99.912 72.3295 99.912C72.4255 99.9013 72.5055 99.9333 72.5695 100.008C72.6335 100.083 72.6655 100.211 72.6655 100.392C72.6655 100.52 72.6388 100.637 72.5855 100.744C72.5428 100.851 72.4628 100.925 72.3455 100.968C72.2175 101.011 72.0468 101.048 71.8335 101.08C71.6308 101.123 71.4442 101.144 71.2735 101.144ZM78.5283 101.112C78.3149 101.112 78.1496 101.053 78.0323 100.936C77.9256 100.819 77.8723 100.653 77.8723 100.44V93.768C77.8723 93.5547 77.9256 93.3947 78.0323 93.288C78.1389 93.1707 78.2936 93.112 78.4963 93.112C78.6989 93.112 78.8536 93.1707 78.9603 93.288C79.0776 93.3947 79.1363 93.5547 79.1363 93.768V95.064H78.9763C79.1469 94.4347 79.4723 93.9493 79.9523 93.608C80.4323 93.2667 81.0243 93.0853 81.7283 93.064C81.8883 93.0533 82.0163 93.0907 82.1123 93.176C82.2083 93.2507 82.2616 93.384 82.2723 93.576C82.2829 93.7573 82.2403 93.9013 82.1443 94.008C82.0483 94.1147 81.8989 94.1787 81.6963 94.2L81.4403 94.232C80.7149 94.296 80.1549 94.5307 79.7603 94.936C79.3763 95.3307 79.1843 95.8747 79.1843 96.568V100.44C79.1843 100.653 79.1256 100.819 79.0082 100.936C78.9016 101.053 78.7416 101.112 78.5283 101.112ZM86.7449 101.144C85.9875 101.144 85.3315 100.979 84.7769 100.648C84.2222 100.317 83.7902 99.8533 83.4809 99.256C83.1822 98.648 83.0329 97.9333 83.0329 97.112C83.0329 96.4933 83.1182 95.9387 83.2889 95.448C83.4595 94.9467 83.7102 94.52 84.0409 94.168C84.3715 93.816 84.7609 93.5493 85.2089 93.368C85.6675 93.176 86.1795 93.08 86.7449 93.08C87.5022 93.08 88.1582 93.2453 88.7129 93.576C89.2675 93.9067 89.6942 94.376 89.9929 94.984C90.3022 95.5813 90.4569 96.2907 90.4569 97.112C90.4569 97.7307 90.3715 98.2853 90.2009 98.776C90.0302 99.2667 89.7795 99.6933 89.4489 100.056C89.1182 100.408 88.7235 100.68 88.2649 100.872C87.8169 101.053 87.3102 101.144 86.7449 101.144ZM86.7449 100.104C87.2249 100.104 87.6462 99.9867 88.0089 99.752C88.3715 99.5173 88.6489 99.176 88.8409 98.728C89.0435 98.28 89.1449 97.7413 89.1449 97.112C89.1449 96.1413 88.9262 95.4 88.4889 94.888C88.0622 94.376 87.4809 94.12 86.7449 94.12C86.2542 94.12 85.8275 94.2373 85.4649 94.472C85.1129 94.696 84.8355 95.032 84.6329 95.48C84.4409 95.9173 84.3449 96.4613 84.3449 97.112C84.3449 98.072 84.5635 98.8133 85.0009 99.336C85.4382 99.848 86.0195 100.104 86.7449 100.104ZM95.1555 101.144C94.5262 101.144 94.0035 101.032 93.5875 100.808C93.1822 100.573 92.8728 100.227 92.6595 99.768C92.4568 99.3093 92.3555 98.7387 92.3555 98.056V93.768C92.3555 93.544 92.4088 93.3787 92.5155 93.272C92.6328 93.1653 92.7928 93.112 92.9955 93.112C93.2088 93.112 93.3688 93.1653 93.4755 93.272C93.5928 93.3787 93.6515 93.544 93.6515 93.768V98.04C93.6515 98.7227 93.7902 99.2347 94.0675 99.576C94.3555 99.9067 94.8035 100.072 95.4115 100.072C96.0728 100.072 96.6115 99.848 97.0275 99.4C97.4435 98.952 97.6515 98.3653 97.6515 97.64V93.768C97.6515 93.544 97.7048 93.3787 97.8115 93.272C97.9288 93.1653 98.0942 93.112 98.3075 93.112C98.5102 93.112 98.6648 93.1653 98.7715 93.272C98.8888 93.3787 98.9475 93.544 98.9475 93.768V100.44C98.9475 100.888 98.7395 101.112 98.3235 101.112C98.1208 101.112 97.9608 101.053 97.8435 100.936C97.7368 100.819 97.6835 100.653 97.6835 100.44V98.984L97.8915 99.208C97.6782 99.8373 97.3262 100.317 96.8355 100.648C96.3555 100.979 95.7955 101.144 95.1555 101.144ZM104.492 101.144C103.884 101.144 103.372 101.037 102.956 100.824C102.551 100.6 102.247 100.28 102.044 99.864C101.842 99.4373 101.74 98.92 101.74 98.312V94.232H100.668C100.487 94.232 100.348 94.1893 100.252 94.104C100.156 94.008 100.108 93.88 100.108 93.72C100.108 93.56 100.156 93.4373 100.252 93.352C100.348 93.2667 100.487 93.224 100.668 93.224H101.74V91.384C101.74 91.1707 101.799 91.0107 101.916 90.904C102.034 90.7867 102.194 90.728 102.396 90.728C102.599 90.728 102.754 90.7867 102.86 90.904C102.978 91.0107 103.036 91.1707 103.036 91.384V93.224H105.052C105.234 93.224 105.372 93.2667 105.468 93.352C105.564 93.4373 105.612 93.56 105.612 93.72C105.612 93.88 105.564 94.008 105.468 94.104C105.372 94.1893 105.234 94.232 105.052 94.232H103.036V98.184C103.036 98.792 103.164 99.256 103.42 99.576C103.676 99.8853 104.092 100.04 104.668 100.04C104.871 100.04 105.042 100.019 105.18 99.976C105.33 99.9333 105.452 99.912 105.548 99.912C105.644 99.9013 105.724 99.9333 105.788 100.008C105.852 100.083 105.884 100.211 105.884 100.392C105.884 100.52 105.858 100.637 105.804 100.744C105.762 100.851 105.682 100.925 105.564 100.968C105.436 101.011 105.266 101.048 105.052 101.08C104.85 101.123 104.663 101.144 104.492 101.144ZM110.392 101.144C109.571 101.144 108.861 100.984 108.264 100.664C107.677 100.333 107.219 99.8693 106.888 99.272C106.568 98.6747 106.408 97.96 106.408 97.128C106.408 96.3173 106.568 95.6133 106.888 95.016C107.208 94.408 107.645 93.9333 108.2 93.592C108.765 93.2507 109.416 93.08 110.152 93.08C110.675 93.08 111.144 93.1707 111.56 93.352C111.976 93.5227 112.328 93.7733 112.616 94.104C112.915 94.4347 113.139 94.8347 113.288 95.304C113.448 95.7733 113.528 96.3013 113.528 96.888C113.528 97.0587 113.48 97.1867 113.384 97.272C113.288 97.3467 113.149 97.384 112.968 97.384H107.4V96.536H112.664L112.408 96.744C112.408 96.168 112.323 95.6827 112.152 95.288C111.981 94.8827 111.731 94.5733 111.4 94.36C111.08 94.1467 110.675 94.04 110.184 94.04C109.64 94.04 109.176 94.168 108.792 94.424C108.419 94.6693 108.136 95.016 107.944 95.464C107.752 95.9013 107.656 96.4133 107.656 97V97.096C107.656 98.0773 107.891 98.824 108.36 99.336C108.84 99.848 109.517 100.104 110.392 100.104C110.755 100.104 111.112 100.056 111.464 99.96C111.827 99.864 112.179 99.704 112.52 99.48C112.669 99.384 112.803 99.3413 112.92 99.352C113.048 99.352 113.149 99.3893 113.224 99.464C113.299 99.528 113.347 99.6133 113.368 99.72C113.4 99.816 113.389 99.9227 113.336 100.04C113.293 100.157 113.203 100.259 113.064 100.344C112.712 100.6 112.296 100.797 111.816 100.936C111.336 101.075 110.861 101.144 110.392 101.144Z" fill="#222B29"/>
<path d="M162 99L168 93L174 99" stroke="#222B29" stroke-width="1.5" stroke-linecap="round" stroke-linejoin="round"/>
<g clip-path="url(#clip0_72_95)">
<g clip-path="url(#clip1_72_95)">
<rect width="168" height="40" transform="translate(20 124)" fill="white"/>
<path d="M31.152 149.112C30.9813 149.112 30.8427 149.075 30.736 149C30.64 148.915 30.5813 148.808 30.56 148.68C30.5493 148.541 30.5813 148.387 30.656 148.216L35.056 138.2C35.152 137.987 35.264 137.837 35.392 137.752C35.5307 137.656 35.68 137.608 35.84 137.608C36 137.608 36.144 137.656 36.272 137.752C36.4107 137.837 36.5227 137.987 36.608 138.2L41.024 148.216C41.1093 148.387 41.1413 148.541 41.12 148.68C41.1093 148.819 41.056 148.925 40.96 149C40.864 149.075 40.7307 149.112 40.56 149.112C40.368 149.112 40.2133 149.064 40.096 148.968C39.9787 148.861 39.8827 148.712 39.808 148.52L38.624 145.784L39.264 146.12H32.384L33.04 145.784L31.872 148.52C31.776 148.723 31.6747 148.872 31.568 148.968C31.4613 149.064 31.3227 149.112 31.152 149.112ZM35.824 139.256L33.248 145.32L32.864 145.016H38.784L38.432 145.32L35.856 139.256H35.824ZM44.1363 149C43.9443 149 43.7949 148.952 43.6883 148.856C43.5816 148.749 43.5283 148.605 43.5283 148.424C43.5283 148.243 43.5816 148.109 43.6883 148.024C43.7949 147.928 43.9443 147.88 44.1363 147.88H46.2163V138.808H46.9043L44.5843 140.344C44.4456 140.419 44.3123 140.451 44.1843 140.44C44.0669 140.429 43.9656 140.387 43.8803 140.312C43.8056 140.227 43.7523 140.131 43.7203 140.024C43.6883 139.907 43.6936 139.789 43.7363 139.672C43.7789 139.544 43.8696 139.437 44.0082 139.352L46.2163 137.896C46.3549 137.811 46.4883 137.741 46.6163 137.688C46.7443 137.635 46.8723 137.608 47.0003 137.608C47.1496 137.608 47.2723 137.656 47.3683 137.752C47.4749 137.837 47.5283 137.976 47.5283 138.168V147.88H49.4483C49.6403 147.88 49.7896 147.928 49.8963 148.024C50.0029 148.109 50.0563 148.243 50.0563 148.424C50.0563 148.616 50.0029 148.76 49.8963 148.856C49.7896 148.952 49.6403 149 49.4483 149H44.1363Z" fill="#1E1E1E"/>
<rect width="168" height="40" transform="translate(20 164)" fill="white"/>
<path d="M31.152 189.112C30.9813 189.112 30.8427 189.075 30.736 189C30.64 188.915 30.5813 188.808 30.56 188.68C30.5493 188.541 30.5813 188.387 30.656 188.216L35.056 178.2C35.152 177.987 35.264 177.837 35.392 177.752C35.5307 177.656 35.68 177.608 35.84 177.608C36 177.608 36.144 177.656 36.272 177.752C36.4107 177.837 36.5227 177.987 36.608 178.2L41.024 188.216C41.1093 188.387 41.1413 188.541 41.12 188.68C41.1093 188.819 41.056 188.925 40.96 189C40.864 189.075 40.7307 189.112 40.56 189.112C40.368 189.112 40.2133 189.064 40.096 188.968C39.9787 188.861 39.8827 188.712 39.808 188.52L38.624 185.784L39.264 186.12H32.384L33.04 185.784L31.872 188.52C31.776 188.723 31.6747 188.872 31.568 188.968C31.4613 189.064 31.3227 189.112 31.152 189.112ZM35.824 179.256L33.248 185.32L32.864 185.016H38.784L38.432 185.32L35.856 179.256H35.824ZM43.7203 189C43.4856 189 43.3096 188.947 43.1923 188.84C43.0856 188.723 43.0323 188.568 43.0323 188.376C43.0323 188.259 43.0589 188.147 43.1123 188.04C43.1763 187.923 43.2616 187.805 43.3683 187.688L46.9523 183.848C47.4963 183.261 47.8856 182.723 48.1203 182.232C48.3656 181.731 48.4883 181.224 48.4883 180.712C48.4883 180.072 48.2909 179.587 47.8963 179.256C47.5123 178.915 46.9469 178.744 46.2003 178.744C45.7203 178.744 45.2669 178.819 44.8403 178.968C44.4136 179.117 44.0029 179.347 43.6083 179.656C43.4696 179.763 43.3416 179.811 43.2243 179.8C43.1176 179.789 43.0216 179.747 42.9363 179.672C42.8509 179.597 42.7923 179.501 42.7603 179.384C42.7283 179.267 42.7283 179.149 42.7603 179.032C42.8029 178.915 42.8883 178.808 43.0163 178.712C43.4323 178.371 43.9336 178.099 44.5203 177.896C45.1069 177.683 45.7043 177.576 46.3123 177.576C47.0696 177.576 47.7096 177.693 48.2323 177.928C48.7549 178.163 49.1496 178.509 49.4163 178.968C49.6829 179.416 49.8163 179.965 49.8163 180.616C49.8163 181.064 49.7416 181.507 49.5923 181.944C49.4536 182.371 49.2349 182.808 48.9363 183.256C48.6483 183.704 48.2696 184.168 47.8003 184.648L44.3923 188.248V187.88H49.7843C49.9869 187.88 50.1363 187.928 50.2323 188.024C50.3389 188.109 50.3923 188.243 50.3923 188.424C50.3923 188.616 50.3389 188.76 50.2323 188.856C50.1363 188.952 49.9869 189 49.7843 189H43.7203Z" fill="#1E1E1E"/>
<rect width="168" height="40" transform="translate(20 204)" fill="white"/>
<path d="M31.152 229.112C30.9813 229.112 30.8427 229.075 30.736 229C30.64 228.915 30.5813 228.808 30.56 228.68C30.5493 228.541 30.5813 228.387 30.656 228.216L35.056 218.2C35.152 217.987 35.264 217.837 35.392 217.752C35.5307 217.656 35.68 217.608 35.84 217.608C36 217.608 36.144 217.656 36.272 217.752C36.4107 217.837 36.5227 217.987 36.608 218.2L41.024 228.216C41.1093 228.387 41.1413 228.541 41.12 228.68C41.1093 228.819 41.056 228.925 40.96 229C40.864 229.075 40.7307 229.112 40.56 229.112C40.368 229.112 40.2133 229.064 40.096 228.968C39.9787 228.861 39.8827 228.712 39.808 228.52L38.624 225.784L39.264 226.12H32.384L33.04 225.784L31.872 228.52C31.776 228.723 31.6747 228.872 31.568 228.968C31.4613 229.064 31.3227 229.112 31.152 229.112ZM35.824 219.256L33.248 225.32L32.864 225.016H38.784L38.432 225.32L35.856 219.256H35.824ZM46.3283 229.144C45.7096 229.144 45.0856 229.053 44.4563 228.872C43.8376 228.691 43.2989 228.424 42.8403 228.072C42.7016 227.976 42.6109 227.869 42.5683 227.752C42.5256 227.624 42.5149 227.507 42.5363 227.4C42.5683 227.283 42.6269 227.187 42.7122 227.112C42.7976 227.027 42.8989 226.979 43.0163 226.968C43.1443 226.957 43.2829 227 43.4323 227.096C43.9016 227.405 44.3709 227.629 44.8403 227.768C45.3096 227.907 45.7949 227.976 46.2963 227.976C46.8403 227.976 47.2989 227.896 47.6723 227.736C48.0456 227.576 48.3283 227.341 48.5203 227.032C48.7123 226.712 48.8083 226.323 48.8083 225.864C48.8083 225.203 48.5896 224.701 48.1523 224.36C47.7149 224.019 47.0803 223.848 46.2483 223.848H45.1123C44.9096 223.848 44.7549 223.8 44.6483 223.704C44.5416 223.597 44.4883 223.453 44.4883 223.272C44.4883 223.101 44.5416 222.968 44.6483 222.872C44.7549 222.765 44.9096 222.712 45.1123 222.712H46.1363C46.6269 222.712 47.0429 222.627 47.3843 222.456C47.7363 222.285 48.0083 222.045 48.2003 221.736C48.3923 221.416 48.4883 221.032 48.4883 220.584C48.4883 219.987 48.2963 219.533 47.9123 219.224C47.5283 218.904 46.9736 218.744 46.2483 218.744C45.7683 218.744 45.3149 218.813 44.8883 218.952C44.4616 219.091 44.0403 219.325 43.6243 219.656C43.4963 219.752 43.3683 219.8 43.2403 219.8C43.1229 219.789 43.0216 219.752 42.9363 219.688C42.8616 219.613 42.8029 219.517 42.7603 219.4C42.7283 219.283 42.7336 219.165 42.7763 219.048C42.8189 218.92 42.9096 218.803 43.0483 218.696C43.4749 218.333 43.9763 218.056 44.5523 217.864C45.1283 217.672 45.7203 217.576 46.3283 217.576C47.0536 217.576 47.6723 217.693 48.1843 217.928C48.7069 218.152 49.1069 218.483 49.3843 218.92C49.6616 219.347 49.8003 219.864 49.8003 220.472C49.8003 220.931 49.7096 221.352 49.5283 221.736C49.3576 222.109 49.1123 222.429 48.7923 222.696C48.4829 222.963 48.1043 223.155 47.6563 223.272V223.096C48.4349 223.224 49.0376 223.544 49.4643 224.056C49.9016 224.557 50.1203 225.192 50.1203 225.96C50.1203 226.611 49.9656 227.176 49.6562 227.656C49.3576 228.125 48.9256 228.493 48.3603 228.76C47.7949 229.016 47.1176 229.144 46.3283 229.144Z" fill="#1E1E1E"/>
<rect width="168" height="40" transform="translate(20 244)" fill="white"/>
<path d="M31.152 269.112C30.9813 269.112 30.8427 269.075 30.736 269C30.64 268.915 30.5813 268.808 30.56 268.68C30.5493 268.541 30.5813 268.387 30.656 268.216L35.056 258.2C35.152 257.987 35.264 257.837 35.392 257.752C35.5307 257.656 35.68 257.608 35.84 257.608C36 257.608 36.144 257.656 36.272 257.752C36.4107 257.837 36.5227 257.987 36.608 258.2L41.024 268.216C41.1093 268.387 41.1413 268.541 41.12 268.68C41.1093 268.819 41.056 268.925 40.96 269C40.864 269.075 40.7307 269.112 40.56 269.112C40.368 269.112 40.2133 269.064 40.096 268.968C39.9787 268.861 39.8827 268.712 39.808 268.52L38.624 265.784L39.264 266.12H32.384L33.04 265.784L31.872 268.52C31.776 268.723 31.6747 268.872 31.568 268.968C31.4613 269.064 31.3227 269.112 31.152 269.112ZM35.824 259.256L33.248 265.32L32.864 265.016H38.784L38.432 265.32L35.856 259.256H35.824ZM48.3443 269.112C48.1416 269.112 47.9816 269.053 47.8643 268.936C47.7469 268.819 47.6883 268.653 47.6883 268.44V266.584H43.0963C42.8829 266.584 42.7123 266.536 42.5843 266.44C42.4669 266.333 42.4083 266.184 42.4083 265.992C42.4083 265.875 42.4349 265.757 42.4883 265.64C42.5416 265.512 42.6376 265.352 42.7763 265.16L47.6563 258.056C47.7523 257.907 47.8589 257.795 47.9763 257.72C48.0936 257.645 48.2323 257.608 48.3923 257.608C48.5629 257.608 48.7069 257.661 48.8243 257.768C48.9523 257.875 49.0163 258.045 49.0163 258.28V265.464H50.1843C50.3869 265.464 50.5416 265.512 50.6483 265.608C50.7549 265.704 50.8083 265.843 50.8083 266.024C50.8083 266.205 50.7549 266.344 50.6483 266.44C50.5416 266.536 50.3869 266.584 50.1843 266.584H49.0163V268.44C49.0163 268.653 48.9576 268.819 48.8403 268.936C48.7229 269.053 48.5576 269.112 48.3443 269.112ZM47.6883 265.464V259.256H48.0723L43.5923 265.816V265.464H47.6883Z" fill="#1E1E1E"/>
<rect width="168" height="40" transform="translate(20 284)" fill="white"/>
<path d="M31.152 309.112C30.9813 309.112 30.8427 309.075 30.736 309C30.64 308.915 30.5813 308.808 30.56 308.68C30.5493 308.541 30.5813 308.387 30.656 308.216L35.056 298.2C35.152 297.987 35.264 297.837 35.392 297.752C35.5307 297.656 35.68 297.608 35.84 297.608C36 297.608 36.144 297.656 36.272 297.752C36.4107 297.837 36.5227 297.987 36.608 298.2L41.024 308.216C41.1093 308.387 41.1413 308.541 41.12 308.68C41.1093 308.819 41.056 308.925 40.96 309C40.864 309.075 40.7307 309.112 40.56 309.112C40.368 309.112 40.2133 309.064 40.096 308.968C39.9787 308.861 39.8827 308.712 39.808 308.52L38.624 305.784L39.264 306.12H32.384L33.04 305.784L31.872 308.52C31.776 308.723 31.6747 308.872 31.568 308.968C31.4613 309.064 31.3227 309.112 31.152 309.112ZM35.824 299.256L33.248 305.32L32.864 305.016H38.784L38.432 305.32L35.856 299.256H35.824ZM46.6963 309.144C46.0883 309.144 45.4803 309.053 44.8723 308.872C44.2749 308.691 43.7309 308.408 43.2403 308.024C43.1123 307.939 43.0269 307.837 42.9843 307.72C42.9416 307.603 42.9363 307.485 42.9683 307.368C43.0003 307.251 43.0589 307.155 43.1443 307.08C43.2296 306.995 43.3309 306.947 43.4483 306.936C43.5763 306.925 43.7096 306.968 43.8483 307.064C44.2856 307.373 44.7389 307.603 45.2083 307.752C45.6776 307.901 46.1683 307.976 46.6803 307.976C47.2029 307.976 47.6509 307.88 48.0243 307.688C48.4083 307.485 48.6963 307.208 48.8883 306.856C49.0909 306.493 49.1923 306.072 49.1923 305.592C49.1923 304.856 48.9789 304.253 48.5523 303.784C48.1256 303.315 47.5389 303.08 46.7923 303.08C46.3336 303.08 45.9123 303.165 45.5283 303.336C45.1443 303.507 44.7923 303.779 44.4723 304.152C44.3976 304.237 44.3069 304.312 44.2003 304.376C44.1043 304.429 43.9923 304.456 43.8643 304.456C43.6829 304.456 43.5389 304.408 43.4323 304.312C43.3363 304.205 43.2883 304.067 43.2883 303.896V298.328C43.2883 298.125 43.3416 297.976 43.4483 297.88C43.5549 297.773 43.7043 297.72 43.8963 297.72H49.3363C49.5389 297.72 49.6883 297.768 49.7843 297.864C49.8909 297.96 49.9443 298.099 49.9443 298.28C49.9443 298.461 49.8909 298.6 49.7843 298.696C49.6883 298.792 49.5389 298.84 49.3363 298.84H44.5843V303.336H44.2323C44.5096 302.888 44.8936 302.547 45.3843 302.312C45.8749 302.067 46.4243 301.944 47.0323 301.944C47.7469 301.944 48.3603 302.093 48.8723 302.392C49.3949 302.691 49.7949 303.112 50.0723 303.656C50.3603 304.189 50.5043 304.813 50.5043 305.528C50.5043 306.232 50.3496 306.856 50.0403 307.4C49.7309 307.944 49.2936 308.371 48.7283 308.68C48.1629 308.989 47.4856 309.144 46.6963 309.144Z" fill="#1E1E1E"/>
<rect width="168" height="40" transform="translate(20 324)" fill="white"/>
<path d="M31.152 349.112C30.9813 349.112 30.8427 349.075 30.736 349C30.64 348.915 30.5813 348.808 30.56 348.68C30.5493 348.541 30.5813 348.387 30.656 348.216L35.056 338.2C35.152 337.987 35.264 337.837 35.392 337.752C35.5307 337.656 35.68 337.608 35.84 337.608C36 337.608 36.144 337.656 36.272 337.752C36.4107 337.837 36.5227 337.987 36.608 338.2L41.024 348.216C41.1093 348.387 41.1413 348.541 41.12 348.68C41.1093 348.819 41.056 348.925 40.96 349C40.864 349.075 40.7307 349.112 40.56 349.112C40.368 349.112 40.2133 349.064 40.096 348.968C39.9787 348.861 39.8827 348.712 39.808 348.52L38.624 345.784L39.264 346.12H32.384L33.04 345.784L31.872 348.52C31.776 348.723 31.6747 348.872 31.568 348.968C31.4613 349.064 31.3227 349.112 31.152 349.112ZM35.824 339.256L33.248 345.32L32.864 345.016H38.784L38.432 345.32L35.856 339.256H35.824ZM46.8403 349.144C45.9549 349.144 45.1976 348.931 44.5683 348.504C43.9496 348.067 43.4803 347.437 43.1603 346.616C42.8403 345.795 42.6803 344.803 42.6803 343.64C42.6803 342.659 42.7816 341.795 42.9843 341.048C43.1869 340.301 43.4856 339.672 43.8803 339.16C44.2749 338.637 44.7549 338.243 45.3203 337.976C45.8856 337.709 46.5256 337.576 47.2403 337.576C47.7309 337.576 48.2323 337.672 48.7443 337.864C49.2669 338.056 49.7256 338.328 50.1203 338.68C50.2376 338.765 50.3069 338.872 50.3283 339C50.3603 339.117 50.3603 339.235 50.3283 339.352C50.2963 339.459 50.2376 339.549 50.1523 339.624C50.0776 339.699 49.9816 339.741 49.8643 339.752C49.7469 339.752 49.6243 339.704 49.4963 339.608C49.1336 339.299 48.7603 339.08 48.3763 338.952C47.9923 338.813 47.6029 338.744 47.2083 338.744C46.5149 338.744 45.9229 338.915 45.4323 339.256C44.9523 339.597 44.5843 340.115 44.3283 340.808C44.0829 341.491 43.9603 342.349 43.9603 343.384V344.872H43.8163C43.8803 344.264 44.0563 343.741 44.3443 343.304C44.6429 342.856 45.0216 342.515 45.4803 342.28C45.9389 342.045 46.4563 341.928 47.0323 341.928C47.6936 341.928 48.2803 342.077 48.7923 342.376C49.3043 342.675 49.7043 343.096 49.9923 343.64C50.2803 344.173 50.4243 344.787 50.4243 345.48C50.4243 346.184 50.2749 346.813 49.9763 347.368C49.6776 347.923 49.2563 348.36 48.7123 348.68C48.1683 348.989 47.5443 349.144 46.8403 349.144ZM46.7603 348.024C47.2296 348.024 47.6456 347.923 48.0083 347.72C48.3709 347.507 48.6536 347.213 48.8563 346.84C49.0589 346.456 49.1603 346.019 49.1603 345.528C49.1603 345.037 49.0589 344.605 48.8563 344.232C48.6536 343.859 48.3709 343.565 48.0083 343.352C47.6456 343.139 47.2296 343.032 46.7603 343.032C46.2909 343.032 45.8749 343.139 45.5123 343.352C45.1496 343.565 44.8669 343.859 44.6643 344.232C44.4616 344.605 44.3603 345.037 44.3603 345.528C44.3603 346.019 44.4616 346.456 44.6643 346.84C44.8669 347.213 45.1496 347.507 45.5123 347.72C45.8749 347.923 46.2909 348.024 46.7603 348.024Z" fill="#1E1E1E"/>
<rect width="168" height="40" transform="translate(20 364)" fill="white"/>
<path d="M31.152 389.112C30.9813 389.112 30.8427 389.075 30.736 389C30.64 388.915 30.5813 388.808 30.56 388.68C30.5493 388.541 30.5813 388.387 30.656 388.216L35.056 378.2C35.152 377.987 35.264 377.837 35.392 377.752C35.5307 377.656 35.68 377.608 35.84 377.608C36 377.608 36.144 377.656 36.272 377.752C36.4107 377.837 36.5227 377.987 36.608 378.2L41.024 388.216C41.1093 388.387 41.1413 388.541 41.12 388.68C41.1093 388.819 41.056 388.925 40.96 389C40.864 389.075 40.7307 389.112 40.56 389.112C40.368 389.112 40.2133 389.064 40.096 388.968C39.9787 388.861 39.8827 388.712 39.808 388.52L38.624 385.784L39.264 386.12H32.384L33.04 385.784L31.872 388.52C31.776 388.723 31.6747 388.872 31.568 388.968C31.4613 389.064 31.3227 389.112 31.152 389.112ZM35.824 379.256L33.248 385.32L32.864 385.016H38.784L38.432 385.32L35.856 379.256H35.824ZM44.3443 389.112C44.1949 389.112 44.0669 389.075 43.9603 389C43.8536 388.925 43.7843 388.824 43.7523 388.696C43.7309 388.557 43.7629 388.408 43.8483 388.248L48.9843 378.28V378.856H43.2243C43.0323 378.856 42.8829 378.808 42.7763 378.712C42.6696 378.605 42.6163 378.461 42.6163 378.28C42.6163 378.099 42.6696 377.96 42.7763 377.864C42.8829 377.768 43.0323 377.72 43.2243 377.72H49.5763C49.7683 377.72 49.9229 377.768 50.0403 377.864C50.1576 377.96 50.2163 378.099 50.2163 378.28C50.2163 378.429 50.1949 378.563 50.1523 378.68C50.1203 378.787 50.0723 378.909 50.0083 379.048L45.0803 388.664C45.0056 388.813 44.9096 388.925 44.7923 389C44.6749 389.075 44.5256 389.112 44.3443 389.112Z" fill="#1E1E1E"/>
<rect width="168" height="40" transform="translate(20 404)" fill="white"/>
<path d="M31.152 429.112C30.9813 429.112 30.8427 429.075 30.736 429C30.64 428.915 30.5813 428.808 30.56 428.68C30.5493 428.541 30.5813 428.387 30.656 428.216L35.056 418.2C35.152 417.987 35.264 417.837 35.392 417.752C35.5307 417.656 35.68 417.608 35.84 417.608C36 417.608 36.144 417.656 36.272 417.752C36.4107 417.837 36.5227 417.987 36.608 418.2L41.024 428.216C41.1093 428.387 41.1413 428.541 41.12 428.68C41.1093 428.819 41.056 428.925 40.96 429C40.864 429.075 40.7307 429.112 40.56 429.112C40.368 429.112 40.2133 429.064 40.096 428.968C39.9787 428.861 39.8827 428.712 39.808 428.52L38.624 425.784L39.264 426.12H32.384L33.04 425.784L31.872 428.52C31.776 428.723 31.6747 428.872 31.568 428.968C31.4613 429.064 31.3227 429.112 31.152 429.112ZM35.824 419.256L33.248 425.32L32.864 425.016H38.784L38.432 425.32L35.856 419.256H35.824ZM46.4563 429.144C45.6136 429.144 44.8883 429.021 44.2803 428.776C43.6829 428.531 43.2243 428.173 42.9043 427.704C42.5949 427.235 42.4403 426.669 42.4403 426.008C42.4403 425.485 42.5469 425.021 42.7603 424.616C42.9736 424.2 43.2723 423.864 43.6562 423.608C44.0403 423.352 44.4829 423.192 44.9843 423.128V423.368C44.2909 423.219 43.7363 422.893 43.3203 422.392C42.9149 421.88 42.7122 421.277 42.7122 420.584C42.7122 419.944 42.8616 419.405 43.1603 418.968C43.4696 418.52 43.9069 418.179 44.4723 417.944C45.0376 417.699 45.6989 417.576 46.4563 417.576C47.2243 417.576 47.8856 417.699 48.4403 417.944C49.0056 418.179 49.4429 418.52 49.7523 418.968C50.0616 419.405 50.2163 419.944 50.2163 420.584C50.2163 421.043 50.1203 421.469 49.9283 421.864C49.7469 422.248 49.4856 422.568 49.1443 422.824C48.8029 423.08 48.4029 423.256 47.9443 423.352V423.128C48.7016 423.235 49.3096 423.549 49.7683 424.072C50.2376 424.584 50.4722 425.229 50.4722 426.008C50.4722 426.669 50.3123 427.235 49.9923 427.704C49.6829 428.173 49.2243 428.531 48.6163 428.776C48.0189 429.021 47.2989 429.144 46.4563 429.144ZM46.4563 428.056C47.3629 428.056 48.0456 427.88 48.5043 427.528C48.9736 427.176 49.2083 426.643 49.2083 425.928C49.2083 425.224 48.9736 424.701 48.5043 424.36C48.0456 424.008 47.3629 423.832 46.4563 423.832C45.5603 423.832 44.8776 424.008 44.4083 424.36C43.9389 424.701 43.7043 425.224 43.7043 425.928C43.7043 426.643 43.9389 427.176 44.4083 427.528C44.8776 427.88 45.5603 428.056 46.4563 428.056ZM46.4563 422.744C46.9789 422.744 47.4216 422.664 47.7843 422.504C48.1576 422.333 48.4456 422.093 48.6483 421.784C48.8509 421.475 48.9523 421.112 48.9523 420.696C48.9523 420.056 48.7283 419.56 48.2803 419.208C47.8429 418.845 47.2349 418.664 46.4563 418.664C45.6776 418.664 45.0696 418.845 44.6323 419.208C44.1949 419.56 43.9763 420.056 43.9763 420.696C43.9763 421.336 44.1949 421.837 44.6323 422.2C45.0696 422.563 45.6776 422.744 46.4563 422.744Z" fill="#1E1E1E"/>
<rect width="168" height="40" transform="translate(20 444)" fill="white"/>
<path d="M31.152 469.112C30.9813 469.112 30.8427 469.075 30.736 469C30.64 468.915 30.5813 468.808 30.56 468.68C30.5493 468.541 30.5813 468.387 30.656 468.216L35.056 458.2C35.152 457.987 35.264 457.837 35.392 457.752C35.5307 457.656 35.68 457.608 35.84 457.608C36 457.608 36.144 457.656 36.272 457.752C36.4107 457.837 36.5227 457.987 36.608 458.2L41.024 468.216C41.1093 468.387 41.1413 468.541 41.12 468.68C41.1093 468.819 41.056 468.925 40.96 469C40.864 469.075 40.7307 469.112 40.56 469.112C40.368 469.112 40.2133 469.064 40.096 468.968C39.9787 468.861 39.8827 468.712 39.808 468.52L38.624 465.784L39.264 466.12H32.384L33.04 465.784L31.872 468.52C31.776 468.723 31.6747 468.872 31.568 468.968C31.4613 469.064 31.3227 469.112 31.152 469.112ZM35.824 459.256L33.248 465.32L32.864 465.016H38.784L38.432 465.32L35.856 459.256H35.824ZM45.6723 469.144C45.1923 469.144 44.6909 469.048 44.1683 468.856C43.6456 468.664 43.1869 468.387 42.7923 468.024C42.6749 467.939 42.6003 467.837 42.5683 467.72C42.5469 467.603 42.5523 467.491 42.5843 467.384C42.6163 467.267 42.6696 467.171 42.7443 467.096C42.8296 467.011 42.9309 466.968 43.0483 466.968C43.1656 466.957 43.2883 467 43.4163 467.096C43.7789 467.405 44.1523 467.629 44.5363 467.768C44.9203 467.907 45.3096 467.976 45.7043 467.976C46.3976 467.976 46.9843 467.805 47.4643 467.464C47.9549 467.123 48.3229 466.605 48.5683 465.912C48.8243 465.219 48.9523 464.36 48.9523 463.336V461.848H49.0963C49.0323 462.445 48.8509 462.968 48.5523 463.416C48.2643 463.864 47.8909 464.205 47.4323 464.44C46.9736 464.675 46.4563 464.792 45.8802 464.792C45.2189 464.792 44.6323 464.643 44.1203 464.344C43.6083 464.045 43.2083 463.624 42.9203 463.08C42.6323 462.536 42.4883 461.923 42.4883 461.24C42.4883 460.525 42.6376 459.896 42.9363 459.352C43.2456 458.797 43.6669 458.365 44.2003 458.056C44.7443 457.736 45.3683 457.576 46.0723 457.576C46.9576 457.576 47.7096 457.795 48.3283 458.232C48.9576 458.659 49.4323 459.283 49.7523 460.104C50.0723 460.925 50.2323 461.917 50.2323 463.08C50.2323 464.061 50.1309 464.925 49.9283 465.672C49.7256 466.419 49.4269 467.053 49.0323 467.576C48.6376 468.088 48.1576 468.477 47.5923 468.744C47.0269 469.011 46.3869 469.144 45.6723 469.144ZM46.1523 463.688C46.6323 463.688 47.0536 463.581 47.4163 463.368C47.7789 463.155 48.0616 462.861 48.2643 462.488C48.4669 462.104 48.5683 461.667 48.5683 461.176C48.5683 460.685 48.4669 460.253 48.2643 459.88C48.0616 459.507 47.7789 459.213 47.4163 459C47.0536 458.787 46.6323 458.68 46.1523 458.68C45.6829 458.68 45.2669 458.787 44.9043 459C44.5523 459.213 44.2696 459.507 44.0563 459.88C43.8536 460.253 43.7523 460.685 43.7523 461.176C43.7523 461.667 43.8536 462.104 44.0563 462.488C44.2696 462.861 44.5523 463.155 44.9043 463.368C45.2669 463.581 45.6829 463.688 46.1523 463.688Z" fill="#1E1E1E"/>
<rect width="168" height="40" transform="translate(20 484)" fill="white"/>
<path d="M31.152 509.112C30.9813 509.112 30.8427 509.075 30.736 509C30.64 508.915 30.5813 508.808 30.56 508.68C30.5493 508.541 30.5813 508.387 30.656 508.216L35.056 498.2C35.152 497.987 35.264 497.837 35.392 497.752C35.5307 497.656 35.68 497.608 35.84 497.608C36 497.608 36.144 497.656 36.272 497.752C36.4107 497.837 36.5227 497.987 36.608 498.2L41.024 508.216C41.1093 508.387 41.1413 508.541 41.12 508.68C41.1093 508.819 41.056 508.925 40.96 509C40.864 509.075 40.7307 509.112 40.56 509.112C40.368 509.112 40.2133 509.064 40.096 508.968C39.9787 508.861 39.8827 508.712 39.808 508.52L38.624 505.784L39.264 506.12H32.384L33.04 505.784L31.872 508.52C31.776 508.723 31.6747 508.872 31.568 508.968C31.4613 509.064 31.3227 509.112 31.152 509.112ZM35.824 499.256L33.248 505.32L32.864 505.016H38.784L38.432 505.32L35.856 499.256H35.824ZM44.1363 509C43.9443 509 43.7949 508.952 43.6883 508.856C43.5816 508.749 43.5283 508.605 43.5283 508.424C43.5283 508.243 43.5816 508.109 43.6883 508.024C43.7949 507.928 43.9443 507.88 44.1363 507.88H46.2163V498.808H46.9043L44.5843 500.344C44.4456 500.419 44.3123 500.451 44.1843 500.44C44.0669 500.429 43.9656 500.387 43.8803 500.312C43.8056 500.227 43.7523 500.131 43.7203 500.024C43.6883 499.907 43.6936 499.789 43.7363 499.672C43.7789 499.544 43.8696 499.437 44.0082 499.352L46.2163 497.896C46.3549 497.811 46.4883 497.741 46.6163 497.688C46.7443 497.635 46.8723 497.608 47.0003 497.608C47.1496 497.608 47.2723 497.656 47.3683 497.752C47.4749 497.837 47.5283 497.976 47.5283 498.168V507.88H49.4483C49.6403 507.88 49.7896 507.928 49.8963 508.024C50.0029 508.109 50.0563 508.243 50.0563 508.424C50.0563 508.616 50.0029 508.76 49.8963 508.856C49.7896 508.952 49.6403 509 49.4483 509H44.1363ZM56.05 509.144C54.7593 509.144 53.778 508.648 53.106 507.656C52.434 506.664 52.098 505.229 52.098 503.352C52.098 502.093 52.2473 501.037 52.546 500.184C52.8447 499.32 53.2873 498.669 53.874 498.232C54.4713 497.795 55.1967 497.576 56.05 497.576C57.3513 497.576 58.3327 498.067 58.994 499.048C59.666 500.019 60.002 501.448 60.002 503.336C60.002 504.595 59.8527 505.656 59.554 506.52C59.2553 507.384 58.8127 508.04 58.226 508.488C57.6393 508.925 56.914 509.144 56.05 509.144ZM56.05 508.008C56.946 508.008 57.6073 507.629 58.034 506.872C58.4713 506.104 58.69 504.925 58.69 503.336C58.69 501.736 58.4713 500.568 58.034 499.832C57.6073 499.085 56.946 498.712 56.05 498.712C55.1647 498.712 54.5033 499.085 54.066 499.832C53.6287 500.579 53.41 501.747 53.41 503.336C53.41 504.925 53.6287 506.104 54.066 506.872C54.5033 507.629 55.1647 508.008 56.05 508.008Z" fill="#1E1E1E"/>
<rect width="168" height="40" transform="translate(20 524)" fill="white"/>
<path d="M31.152 549.112C30.9813 549.112 30.8427 549.075 30.736 549C30.64 548.915 30.5813 548.808 30.56 548.68C30.5493 548.541 30.5813 548.387 30.656 548.216L35.056 538.2C35.152 537.987 35.264 537.837 35.392 537.752C35.5307 537.656 35.68 537.608 35.84 537.608C36 537.608 36.144 537.656 36.272 537.752C36.4107 537.837 36.5227 537.987 36.608 538.2L41.024 548.216C41.1093 548.387 41.1413 548.541 41.12 548.68C41.1093 548.819 41.056 548.925 40.96 549C40.864 549.075 40.7307 549.112 40.56 549.112C40.368 549.112 40.2133 549.064 40.096 548.968C39.9787 548.861 39.8827 548.712 39.808 548.52L38.624 545.784L39.264 546.12H32.384L33.04 545.784L31.872 548.52C31.776 548.723 31.6747 548.872 31.568 548.968C31.4613 549.064 31.3227 549.112 31.152 549.112ZM35.824 539.256L33.248 545.32L32.864 545.016H38.784L38.432 545.32L35.856 539.256H35.824ZM44.1363 549C43.9443 549 43.7949 548.952 43.6883 548.856C43.5816 548.749 43.5283 548.605 43.5283 548.424C43.5283 548.243 43.5816 548.109 43.6883 548.024C43.7949 547.928 43.9443 547.88 44.1363 547.88H46.2163V538.808H46.9043L44.5843 540.344C44.4456 540.419 44.3123 540.451 44.1843 540.44C44.0669 540.429 43.9656 540.387 43.8803 540.312C43.8056 540.227 43.7523 540.131 43.7203 540.024C43.6883 539.907 43.6936 539.789 43.7363 539.672C43.7789 539.544 43.8696 539.437 44.0082 539.352L46.2163 537.896C46.3549 537.811 46.4883 537.741 46.6163 537.688C46.7443 537.635 46.8723 537.608 47.0003 537.608C47.1496 537.608 47.2723 537.656 47.3683 537.752C47.4749 537.837 47.5283 537.976 47.5283 538.168V547.88H49.4483C49.6403 547.88 49.7896 547.928 49.8963 548.024C50.0029 548.109 50.0563 548.243 50.0563 548.424C50.0563 548.616 50.0029 548.76 49.8963 548.856C49.7896 548.952 49.6403 549 49.4483 549H44.1363ZM53.73 549C53.538 549 53.3887 548.952 53.282 548.856C53.1753 548.749 53.122 548.605 53.122 548.424C53.122 548.243 53.1753 548.109 53.282 548.024C53.3887 547.928 53.538 547.88 53.73 547.88H55.81V538.808H56.498L54.178 540.344C54.0393 540.419 53.906 540.451 53.778 540.44C53.6607 540.429 53.5593 540.387 53.474 540.312C53.3993 540.227 53.346 540.131 53.314 540.024C53.282 539.907 53.2873 539.789 53.33 539.672C53.3727 539.544 53.4633 539.437 53.602 539.352L55.81 537.896C55.9487 537.811 56.082 537.741 56.21 537.688C56.338 537.635 56.466 537.608 56.594 537.608C56.7433 537.608 56.866 537.656 56.962 537.752C57.0687 537.837 57.122 537.976 57.122 538.168V547.88H59.042C59.234 547.88 59.3833 547.928 59.49 548.024C59.5967 548.109 59.65 548.243 59.65 548.424C59.65 548.616 59.5967 548.76 59.49 548.856C59.3833 548.952 59.234 549 59.042 549H53.73Z" fill="#1E1E1E"/>
<rect width="168" height="40" transform="translate(20 564)" fill="white"/>
<path d="M31.152 589.112C30.9813 589.112 30.8427 589.075 30.736 589C30.64 588.915 30.5813 588.808 30.56 588.68C30.5493 588.541 30.5813 588.387 30.656 588.216L35.056 578.2C35.152 577.987 35.264 577.837 35.392 577.752C35.5307 577.656 35.68 577.608 35.84 577.608C36 577.608 36.144 577.656 36.272 577.752C36.4107 577.837 36.5227 577.987 36.608 578.2L41.024 588.216C41.1093 588.387 41.1413 588.541 41.12 588.68C41.1093 588.819 41.056 588.925 40.96 589C40.864 589.075 40.7307 589.112 40.56 589.112C40.368 589.112 40.2133 589.064 40.096 588.968C39.9787 588.861 39.8827 588.712 39.808 588.52L38.624 585.784L39.264 586.12H32.384L33.04 585.784L31.872 588.52C31.776 588.723 31.6747 588.872 31.568 588.968C31.4613 589.064 31.3227 589.112 31.152 589.112ZM35.824 579.256L33.248 585.32L32.864 585.016H38.784L38.432 585.32L35.856 579.256H35.824ZM44.1363 589C43.9443 589 43.7949 588.952 43.6883 588.856C43.5816 588.749 43.5283 588.605 43.5283 588.424C43.5283 588.243 43.5816 588.109 43.6883 588.024C43.7949 587.928 43.9443 587.88 44.1363 587.88H46.2163V578.808H46.9043L44.5843 580.344C44.4456 580.419 44.3123 580.451 44.1843 580.44C44.0669 580.429 43.9656 580.387 43.8803 580.312C43.8056 580.227 43.7523 580.131 43.7203 580.024C43.6883 579.907 43.6936 579.789 43.7363 579.672C43.7789 579.544 43.8696 579.437 44.0082 579.352L46.2163 577.896C46.3549 577.811 46.4883 577.741 46.6163 577.688C46.7443 577.635 46.8723 577.608 47.0003 577.608C47.1496 577.608 47.2723 577.656 47.3683 577.752C47.4749 577.837 47.5283 577.976 47.5283 578.168V587.88H49.4483C49.6403 587.88 49.7896 587.928 49.8963 588.024C50.0029 588.109 50.0563 588.243 50.0563 588.424C50.0563 588.616 50.0029 588.76 49.8963 588.856C49.7896 588.952 49.6403 589 49.4483 589H44.1363ZM53.314 589C53.0793 589 52.9033 588.947 52.786 588.84C52.6793 588.723 52.626 588.568 52.626 588.376C52.626 588.259 52.6527 588.147 52.706 588.04C52.77 587.923 52.8553 587.805 52.962 587.688L56.546 583.848C57.09 583.261 57.4793 582.723 57.714 582.232C57.9593 581.731 58.082 581.224 58.082 580.712C58.082 580.072 57.8847 579.587 57.49 579.256C57.106 578.915 56.5407 578.744 55.794 578.744C55.314 578.744 54.8607 578.819 54.434 578.968C54.0073 579.117 53.5967 579.347 53.202 579.656C53.0633 579.763 52.9353 579.811 52.818 579.8C52.7113 579.789 52.6153 579.747 52.53 579.672C52.4447 579.597 52.386 579.501 52.354 579.384C52.322 579.267 52.322 579.149 52.354 579.032C52.3967 578.915 52.482 578.808 52.61 578.712C53.026 578.371 53.5273 578.099 54.114 577.896C54.7007 577.683 55.298 577.576 55.906 577.576C56.6633 577.576 57.3033 577.693 57.826 577.928C58.3487 578.163 58.7433 578.509 59.01 578.968C59.2767 579.416 59.41 579.965 59.41 580.616C59.41 581.064 59.3353 581.507 59.186 581.944C59.0473 582.371 58.8287 582.808 58.53 583.256C58.242 583.704 57.8633 584.168 57.394 584.648L53.986 588.248V587.88H59.378C59.5807 587.88 59.73 587.928 59.826 588.024C59.9327 588.109 59.986 588.243 59.986 588.424C59.986 588.616 59.9327 588.76 59.826 588.856C59.73 588.952 59.5807 589 59.378 589H53.314Z" fill="#1E1E1E"/>
</g>
<rect x="180" y="124" width="8" height="480" rx="4" fill="#F5F5F5"/>
<rect x="180" y="124" width="8" height="120" rx="4" fill="#6C6F6E"/>
</g>
<defs>
<clipPath id="clip0_72_95">
<rect x="20" y="124" width="168" height="480" rx="4" fill="white"/>
</clipPath>
<clipPath id="clip1_72_95">
<rect x="20" y="124" width="168" height="480" rx="4" fill="white"/>
</clipPath>
</defs>
</svg>
